<?xml version="1.0" standalone="no"?>
<!DOCTYPE svg PUBLIC "-//W3C//DTD SVG 20010904//EN"
 "http://www.w3.org/TR/2001/REC-SVG-20010904/DTD/svg10.dtd">
<svg version="1.0" xmlns="http://www.w3.org/2000/svg"
 width="800.000000pt" height="329.000000pt" viewBox="0 0 800.000000 329.000000"
 preserveAspectRatio="xMidYMid meet">
<metadata>
Created by potrace 1.16, written by Peter Selinger 2001-2019
</metadata>
<g transform="translate(0.000000,329.000000) scale(0.100000,-0.100000)"
fill="#000000" stroke="none">
<path d="M58 3141 c-31 -27 -33 -34 -33 -91 0 -57 2 -64 33 -91 24 -22 42 -29
72 -29 30 0 48 7 72 29 31 27 33 34 33 91 0 57 -2 64 -33 91 -24 22 -42 29
-72 29 -30 0 -48 -7 -72 -29z m99 -1 c70 -25 72 -155 2 -179 -39 -13 -83 3
-98 35 -25 55 -6 127 38 143 14 5 26 10 27 10 1 1 15 -4 31 -9z"/>
<path d="M290 3050 c0 -100 3 -120 15 -120 11 0 15 12 15 50 0 46 2 50 24 50
19 0 31 -11 53 -50 17 -30 35 -50 45 -50 15 0 13 7 -13 49 l-30 50 20 20 c13
13 21 34 21 55 0 47 -29 66 -97 66 l-53 0 0 -120z"/>
<path d="M770 3050 c0 -100 3 -120 15 -120 12 0 15 13 15 55 l0 55 60 0 60 0
0 -55 c0 -42 3 -55 15 -55 13 0 15 20 15 120 0 100 -2 120 -15 120 -12 0 -15
-13 -15 -55 l0 -55 -60 0 -60 0 0 55 c0 42 -3 55 -15 55 -12 0 -15 -20 -15
-120z"/>
<path d="M53 2643 c-24 -9 -13 -25 13 -19 36 9 64 -2 64 -25 0 -15 -7 -19 -33
-19 -45 0 -77 -25 -77 -59 0 -48 43 -66 93 -40 16 9 22 9 25 0 2 -6 8 -11 13
-11 5 0 9 33 9 73 0 59 -4 77 -18 90 -18 16 -63 21 -89 10z"/>
<path d="M315 2625 c-53 -53 -18 -155 54 -155 36 0 61 9 61 22 0 6 -13 8 -32
4 -38 -7 -78 15 -78 44 0 18 7 20 60 20 52 0 60 3 60 19 0 10 -9 30 -21 45
-27 34 -71 35 -104 1z"/>
<path d="M53 1723 c-24 -9 -13 -25 13 -19 36 9 64 -2 64 -25 0 -15 -7 -19 -33
-19 -45 0 -77 -25 -77 -59 0 -48 43 -66 93 -40 16 9 22 9 25 0 2 -6 8 -11 13
-11 5 0 9 33 9 73 0 59 -4 77 -18 90 -18 16 -63 21 -89 10z"/>
<path d="M230 1705 c-34 -36 -32 -101 4 -132 26 -22 68 -29 100 -17 31 12 16
22 -29 21 -47 -2 -59 5 -70 41 -6 21 -4 22 54 22 61 0 61 0 61 29 0 58 -77 81
-120 36z"/>
</g>
</svg>
