<?xml version="1.0" standalone="no"?>
<!DOCTYPE svg PUBLIC "-//W3C//DTD SVG 20010904//EN"
 "http://www.w3.org/TR/2001/REC-SVG-20010904/DTD/svg10.dtd">
<svg version="1.0" xmlns="http://www.w3.org/2000/svg"
 width="1050.000000pt" height="1050.000000pt" viewBox="0 0 1050.000000 1050.000000"
 preserveAspectRatio="xMidYMid meet">
<metadata>
Created by potrace 1.16, written by Peter Selinger 2001-2019
</metadata>
<g transform="translate(0.000000,1050.000000) scale(0.100000,-0.100000)"
fill="#000000" stroke="none">
<path d="M3455 6674 c-206 -9 -343 -18 -350 -25 -7 -7 -5 -9 5 -5 8 3 114 7
235 10 219 4 305 -3 305 -28 0 -7 7 -21 15 -31 42 -56 95 -155 95 -180 0 -16
-19 -1 -24 18 -2 12 -4 -3 -2 -34 2 -46 0 -56 -13 -55 -24 2 -27 9 -30 93 -1
43 -7 80 -12 81 -5 2 -9 10 -9 17 0 8 -15 21 -34 30 -22 11 -33 22 -29 31 3 8
9 11 14 8 5 -3 6 -11 3 -17 -5 -9 -4 -9 6 0 28 26 -2 32 -143 27 -184 -6 -347
-15 -347 -20 0 -2 13 -26 30 -52 35 -57 94 -217 105 -282 4 -25 12 -50 17 -57
5 -7 7 -16 4 -22 -3 -5 1 -11 9 -15 8 -3 14 0 12 7 -1 7 6 11 15 9 9 -1 19 5
21 15 3 11 5 8 6 -9 0 -16 6 -28 12 -28 5 0 8 4 5 9 -3 5 5 8 18 7 13 0 24 -5
23 -9 -1 -5 9 -16 23 -25 19 -14 22 -14 15 -2 -5 8 -10 21 -11 28 -4 24 6 12
21 -25 8 -21 28 -47 45 -58 19 -13 25 -22 17 -27 -6 -4 -15 0 -20 8 -9 15 -27
10 -27 -7 0 -6 4 -8 9 -4 5 3 12 1 16 -4 3 -6 13 -7 23 -4 15 6 15 5 -1 -11
-17 -18 -19 -18 -42 4 -19 18 -22 26 -14 37 18 20 1 15 -21 -7 -11 -11 -27
-20 -35 -20 -18 0 -20 -16 -2 -23 6 -3 0 -10 -16 -16 -20 -8 -34 -8 -48 -1
-16 9 -19 7 -19 -10 0 -11 -4 -20 -10 -20 -6 0 -6 9 0 25 5 13 5 27 1 30 -5 3
-9 21 -9 40 0 35 19 62 38 50 13 -8 13 -85 0 -85 -6 0 -9 10 -7 23 2 12 2 16
0 10 -3 -7 -9 -13 -14 -13 -6 0 -5 -8 1 -20 7 -13 21 -20 41 -20 26 0 28 2 20
18 -6 10 -7 28 -4 40 3 12 2 33 -1 47 -6 22 -12 25 -39 23 -18 -1 -38 2 -45 6
-13 8 -15 2 -12 -68 1 -36 -2 -47 -12 -44 -7 3 -12 12 -12 21 1 9 -2 14 -7 11
-5 -3 -9 2 -9 10 0 9 3 16 8 16 15 0 10 49 -7 53 -13 4 -12 5 3 6 16 1 18 6
12 41 -14 88 -28 140 -37 135 -5 -4 -6 0 -3 8 10 26 -90 244 -114 248 -31 6
-59 5 -72 -2 -8 -5 -11 -9 -7 -9 4 0 3 -9 -3 -19 -14 -28 -2 -54 23 -47 20 5
47 -14 47 -34 0 -6 5 -8 10 -5 6 3 10 0 10 -7 0 -10 2 -10 8 0 5 7 8 -3 8 -25
-1 -21 -7 -47 -14 -58 -11 -18 -12 -15 -7 20 l5 40 -14 -45 -13 -45 -13 43
c-7 23 -15 41 -16 39 -5 -4 60 -259 69 -274 4 -6 3 -13 -2 -15 -7 -2 -7 -17 0
-43 5 -22 10 -69 10 -105 0 -45 3 -59 9 -45 5 11 9 30 9 42 1 12 5 24 9 27 4
2 7 -12 5 -32 -2 -20 0 -31 3 -24 3 6 10 10 15 6 5 -3 9 -1 9 5 0 5 -4 12 -9
15 -4 3 -7 22 -6 43 4 64 6 70 15 45 5 -12 6 -30 3 -39 -4 -10 -2 -14 4 -10
15 10 25 -21 14 -42 -6 -10 -6 -23 0 -32 7 -12 9 -12 9 1 1 11 4 10 15 -4 17
-22 20 -61 5 -51 -12 7 -12 -2 -1 -30 7 -16 9 -14 15 16 3 20 4 43 1 52 -4 8
-2 18 4 22 6 3 11 20 11 38 0 23 3 28 11 20 7 -7 10 -39 8 -85 -3 -58 -1 -75
9 -75 10 0 12 9 7 34 -4 20 -2 33 5 33 5 0 10 -22 10 -51 0 -44 -2 -50 -15
-39 -22 19 -32 5 -39 -57 -4 -32 -15 -98 -25 -148 -10 -49 -15 -94 -11 -100 9
-11 -4 -437 -15 -476 -6 -26 -12 -27 -127 -33 -10 0 -18 -6 -18 -12 0 -7 -7
-15 -16 -18 -13 -5 -14 -9 -5 -20 14 -17 -1 -25 -37 -18 -15 3 -21 10 -18 18
3 8 1 14 -4 14 -5 0 -13 12 -16 26 -6 24 -9 21 -51 -41 -38 -58 -43 -70 -37
-102 l7 -36 102 6 102 6 32 -33 31 -32 6 -171 6 -171 55 -58 55 -59 -6 52 c-4
34 -3 54 5 59 11 6 10 82 -7 386 l-6 107 -24 -27 c-15 -18 -23 -22 -23 -12 1
20 17 59 18 42 1 -11 4 -11 15 1 10 10 13 27 9 54 -4 28 -1 43 8 49 7 4 61 9
119 11 l105 4 56 57 55 57 -7 80 c-4 44 -8 112 -8 152 -1 70 -1 71 27 76 46 9
211 7 217 -2 8 -14 20 -524 20 -871 l0 -315 -109 -3 c-60 -1 -113 1 -117 5 -4
4 -11 198 -15 431 -4 232 -10 422 -13 422 -13 0 -93 -88 -83 -91 6 -3 15 -123
21 -304 7 -164 15 -302 20 -305 5 -3 9 -51 10 -106 l2 -102 -57 -7 c-32 -4
-79 -7 -105 -7 l-48 1 42 -79 c38 -72 43 -77 62 -67 38 22 248 17 380 -9 207
-39 238 -45 300 -49 112 -7 250 -24 285 -34 40 -13 246 -15 254 -3 2 4 7 538
11 1187 7 1341 4 1288 78 1300 l40 7 -6 85 c-4 47 -9 88 -12 92 -4 3 -43 7
-88 9 -74 3 -80 2 -62 -11 21 -16 17 -17 -240 -32 -116 -7 -217 -14 -282 -21
-50 -5 -54 -4 -63 20 -10 26 -30 36 -30 14 0 -6 -9 -3 -20 7 -23 21 -19 35 5
15 16 -13 20 -3 9 24 -7 20 -83 19 -579 0z m360 -461 c11 -100 8 -221 -10
-328 -14 -89 -25 -130 -25 -96 0 9 -8 11 -25 7 -14 -4 -25 -2 -25 3 0 5 10 11
23 13 14 2 21 9 18 18 -2 8 -3 28 -2 43 1 26 0 27 -14 14 -9 -9 -32 -15 -59
-15 -37 1 -44 4 -43 20 1 10 7 18 14 18 7 0 13 5 13 10 0 6 -7 10 -16 10 -14
0 -14 3 -4 15 7 8 20 15 29 15 14 0 14 -2 1 -10 -24 -15 -6 -12 31 7 45 21 44
20 25 38 -18 18 -21 35 -7 35 5 0 7 9 4 20 -4 15 0 20 16 20 11 0 21 5 21 10
0 6 -6 10 -14 10 -8 0 -17 7 -20 16 -5 13 -9 14 -21 4 -8 -6 -19 -9 -26 -5 -8
6 -8 2 1 -14 8 -16 9 -35 2 -66 -6 -30 -6 -47 2 -55 8 -8 4 -8 -15 0 -22 10
-32 9 -55 -5 -26 -15 -19 -14 26 2 11 4 12 3 4 -6 -6 -6 -25 -13 -43 -16 -32
-4 -32 -3 -16 15 14 16 59 35 75 32 3 0 6 18 8 40 4 54 -21 92 -54 85 -14 -2
-27 0 -30 4 -3 5 0 9 6 9 6 0 9 4 6 9 -3 5 1 12 10 15 8 3 12 10 9 16 -3 5 -1
10 5 10 6 0 15 11 20 25 11 28 31 32 54 10 8 -8 17 -15 20 -15 10 0 7 58 -4
62 -5 2 3 13 17 26 l25 23 -6 -25 c-7 -29 4 -39 24 -24 12 8 11 9 -4 4 -14 -5
-17 -2 -12 10 3 8 6 23 6 32 1 38 28 -36 35 -95z"/>
<path d="M2133 6575 l6 -55 -355 0 c-403 0 -370 -1 -366 12 2 6 -4 8 -15 3
-10 -4 -36 -9 -58 -12 -35 -4 -38 -3 -23 9 11 9 14 19 8 28 -7 11 -13 11 -33
-3 -19 -12 -25 -24 -24 -49 2 -26 -2 -33 -15 -32 -17 2 -19 -2 -17 -23 0 -5 6
-7 13 -5 9 1 12 -6 9 -25 -2 -16 -5 -66 -7 -113 -2 -52 -7 -85 -15 -88 -6 -2
-11 -8 -11 -13 0 -4 7 -5 17 -2 9 4 14 2 11 -3 -6 -8 -13 -56 -24 -154 -3 -19
-4 -52 -4 -72 1 -31 -3 -38 -19 -38 -20 0 -36 -26 -22 -35 5 -3 11 2 15 10 9
26 26 16 26 -14 0 -32 -14 -48 -26 -29 -5 7 -10 4 -16 -12 -5 -12 -5 -26 -2
-29 4 -3 9 0 11 7 3 6 11 12 18 12 11 0 13 -102 5 -263 0 -4 -8 -7 -17 -5 -14
2 -18 -4 -20 -27 -1 -16 1 -22 3 -12 8 27 34 21 34 -8 0 -15 6 -25 15 -25 8 0
12 6 9 15 -3 8 -2 20 3 27 5 9 10 2 13 -21 5 -33 5 -33 175 -96 215 -79 236
-87 373 -157 158 -81 298 -175 379 -255 79 -77 153 -143 162 -143 9 0 124 193
154 257 l24 53 7 -77 c3 -42 6 -110 6 -152 0 -42 3 -93 6 -113 6 -32 10 -38
32 -38 l25 0 -6 133 c-19 385 -20 519 -6 528 8 5 9 9 2 9 -6 0 -9 9 -6 20 3
13 0 20 -8 20 -12 0 -12 2 -1 9 11 6 10 11 -3 25 -9 9 -12 16 -6 16 6 0 11 7
11 15 0 8 -5 15 -12 15 -9 0 -9 3 0 12 17 17 15 28 -5 28 -15 0 -14 2 3 15 14
11 15 14 4 15 -9 0 -11 3 -5 8 12 9 15 92 3 92 -5 0 -6 5 -3 10 3 6 0 10 -7
10 -9 0 -9 3 2 10 11 7 7 10 -17 10 -44 0 -63 -9 -63 -31 0 -13 7 -19 23 -20
21 -1 21 -1 -3 -8 l-24 -7 24 -17 c13 -9 20 -17 14 -17 -31 0 -133 130 -163
208 -49 124 -12 192 129 237 77 24 169 75 187 102 32 49 -19 153 -129 260 -56
54 -85 74 -118 83 -25 6 -61 15 -80 21 -19 5 -75 9 -124 9 l-89 0 6 -55z"/>
<path d="M6926 6360 c5 -48 4 -64 -7 -71 -11 -7 -10 -9 4 -9 21 0 21 -2 2 -46
-8 -19 -14 -38 -14 -42 4 -28 -3 -44 -16 -38 -8 3 -15 2 -15 -3 0 -5 9 -11 19
-14 18 -4 19 -15 20 -157 0 -84 1 -154 3 -155 2 -2 0 -68 -4 -147 -3 -78 -5
-145 -2 -147 2 -2 10 1 17 8 12 9 16 87 21 404 6 392 2 467 -22 475 -10 3 -12
-9 -6 -58z"/>
<path d="M2873 6173 c-19 -4 -21 -8 -13 -29 5 -13 11 -50 12 -82 l2 -59 38 7
c43 8 67 25 79 57 12 32 -8 81 -42 98 -28 15 -36 16 -76 8z"/>
<path d="M3135 5819 c0 -27 -3 -49 -7 -49 -19 0 -6 -18 17 -24 18 -5 25 -13
25 -31 0 -13 -4 -27 -10 -30 -5 -3 -10 -1 -10 6 0 21 -13 0 -15 -24 -1 -12 -5
-20 -10 -19 -9 4 -25 -18 -25 -36 0 -7 6 -10 13 -7 6 4 5 1 -4 -7 -19 -16 -30
-56 -18 -64 5 -3 34 -2 64 1 l54 7 20 88 c11 49 23 117 27 152 5 58 4 64 -16
76 -18 11 -21 11 -14 0 6 -10 4 -10 -9 1 -15 12 -20 12 -36 -5 -10 -11 -21
-26 -24 -34 -3 -9 -6 -4 -6 12 -2 49 -16 37 -16 -13z"/>
<path d="M5843 5693 c-37 -5 -45 -22 -10 -24 21 -1 21 -1 -3 -9 l-25 -8 25 -2
c22 -1 23 -2 6 -9 -28 -11 -30 -41 -3 -42 21 0 21 -1 2 -9 l-20 -9 20 -1 20
-1 -20 -9 -20 -9 20 0 c17 -1 18 -3 5 -11 -13 -9 -13 -11 0 -20 13 -9 13 -10
0 -10 -11 -1 -10 -4 4 -15 15 -11 16 -15 5 -16 -8 0 -6 -4 6 -9 16 -7 17 -9 3
-9 -19 -1 -14 -41 6 -42 6 0 0 -5 -14 -10 -18 -8 -21 -12 -11 -18 11 -7 11 -9
0 -14 -8 -3 -3 -6 11 -7 l25 -1 -25 -11 c-24 -10 -24 -10 -5 -18 18 -8 18 -9
2 -9 -11 -1 -15 -6 -11 -12 3 -6 0 -15 -7 -20 -11 -7 -10 -9 3 -9 11 0 15 -5
12 -15 -4 -11 1 -15 17 -15 19 0 21 -2 9 -10 -11 -8 -12 -12 -3 -18 12 -7 17
-47 62 -442 11 -96 23 -194 26 -217 l6 -41 -42 -7 c-30 -5 -44 -3 -50 6 -7 11
-9 11 -9 1 0 -7 7 -15 16 -19 21 -8 327 29 313 38 -7 4 -38 5 -69 2 l-58 -6
-6 39 c-3 22 -22 170 -41 329 -20 160 -38 298 -41 308 -3 9 5 33 17 53 12 20
18 39 13 43 -5 3 -11 15 -12 26 -2 11 -9 23 -15 27 -7 4 -9 8 -5 8 4 0 3 12
-3 28 -16 40 -20 67 -23 167 -2 50 -4 96 -5 103 -1 12 -29 13 -98 5z"/>
<path d="M2673 5583 c-5 -16 -8 -43 -6 -62 2 -20 -2 -39 -9 -44 -9 -6 -4 -7
12 -3 14 3 63 6 110 6 62 0 80 3 68 11 -11 6 -17 21 -16 42 2 69 -6 77 -82 77
-65 0 -68 -1 -77 -27z"/>
<path d="M6790 5537 c0 -20 -11 -22 -27 -6 -7 7 -19 8 -30 4 -10 -5 -21 -7
-25 -7 -5 1 -8 -1 -9 -5 0 -5 -3 -20 -5 -34 -3 -16 2 -31 11 -39 12 -10 13
-16 4 -26 -9 -11 -8 -14 0 -14 7 0 9 -5 6 -10 -4 -6 -12 -7 -18 -4 -8 5 -8 3
1 -7 14 -16 16 -33 2 -24 -5 3 -10 1 -10 -4 0 -6 5 -11 11 -11 5 0 7 -4 4 -10
-3 -5 -1 -10 6 -10 8 0 8 -4 -1 -15 -10 -12 -9 -15 6 -15 15 0 16 -2 5 -9 -17
-11 -24 -41 -9 -41 6 0 0 -9 -13 -21 -13 -11 -18 -17 -11 -14 10 5 12 0 9 -24
-3 -17 -1 -31 4 -31 5 0 9 5 9 11 0 5 5 7 10 4 16 -10 12 -19 -12 -30 -23 -10
-38 -55 -19 -55 6 0 11 5 11 10 0 6 7 10 15 10 17 0 19 -18 6 -39 -6 -9 -10
-10 -16 -2 -12 21 -36 -9 -33 -43 1 -18 -2 -37 -6 -44 -4 -6 -3 -19 2 -29 9
-14 11 -14 22 6 8 16 15 20 22 13 14 -14 0 -52 -17 -46 -7 3 -16 0 -20 -6 -4
-7 -9 -96 -11 -199 -2 -102 -5 -214 -7 -248 -4 -65 6 -102 19 -70 9 25 24 21
24 -8 0 -22 -3 -25 -25 -19 -24 6 -25 4 -26 -42 -2 -87 -8 -139 -34 -339 -14
-109 -23 -200 -21 -203 3 -2 1 -13 -5 -23 -6 -13 -6 -19 1 -19 5 0 10 -7 10
-15 0 -8 5 -15 10 -15 6 0 10 -4 10 -10 0 -6 -38 -10 -92 -10 l-93 0 -28 -35
c-15 -19 -23 -35 -17 -35 6 0 8 -5 4 -12 -5 -8 -2 -9 12 -4 10 4 53 10 94 12
60 4 97 -1 189 -24 73 -18 114 -25 117 -18 2 6 3 358 1 781 -2 727 -3 772 -20
804 -16 29 -18 47 -12 125 4 50 7 98 7 106 1 18 17 40 29 40 5 0 6 -7 3 -15
-4 -8 -1 -15 4 -15 6 0 14 9 17 20 4 13 15 20 30 20 13 0 27 5 30 11 5 7 -5 8
-32 3 -21 -3 -40 -6 -43 -6 -46 0 -69 4 -85 15 -27 21 -11 38 24 26 16 -6 51
-9 77 -7 l49 3 -30 15 c-16 7 -38 20 -47 28 -16 13 -18 13 -18 -1z"/>
<path d="M9897 5371 c-4 -68 -7 -548 -7 -1066 l0 -942 -82 17 c-46 10 -117 19
-158 21 l-75 4 3 -176 3 -176 -102 -12 c-102 -11 -238 -56 -316 -103 -18 -11
-42 -18 -54 -16 -25 3 -23 -22 -27 341 l-2 177 -40 0 c-39 0 -40 1 -39 33 0
17 3 62 7 98 7 58 5 68 -10 78 -23 14 -31 14 -23 -1 4 -7 0 -5 -8 5 -17 21
-84 19 -79 -2 1 -7 -2 -9 -9 -5 -8 5 -10 2 -7 -8 5 -12 -1 -13 -35 -9 -50 7
-87 3 -87 -10 0 -5 9 -9 20 -9 11 0 20 -6 20 -14 0 -8 2 -21 5 -29 4 -8 0 -14
-10 -14 -12 0 -15 6 -10 24 3 14 1 23 -6 23 -9 0 -10 -24 -6 -88 3 -49 2 -93
-1 -99 -4 -5 -17 -9 -29 -8 l-23 2 0 -174 c0 -112 4 -173 10 -173 7 0 10 -42
8 -117 l-3 -118 -120 -3 c-66 -2 -139 0 -163 3 l-43 6 7 300 7 299 -26 0 c-14
0 -32 3 -41 6 -14 5 -16 -25 -18 -272 l-3 -279 -120 3 c-66 2 -123 7 -128 11
-4 4 -10 132 -14 285 l-6 278 -36 -6 c-96 -15 -154 -18 -216 -11 l-68 7 6 979
6 979 -62 1 c-135 2 -299 9 -434 19 -186 13 -329 13 -355 -1 -17 -9 -18 -13
-7 -20 8 -5 10 -9 4 -9 -7 0 -11 -251 -12 -728 -2 -400 -5 -799 -9 -887 -3
-88 -6 -177 -5 -197 0 -21 -3 -38 -7 -38 -4 0 -8 -62 -8 -138 -4 -406 -10
-588 -19 -594 -6 -5 -6 -8 1 -8 9 0 9 -11 3 -37 -11 -49 -11 -75 1 -48 8 18 9
17 9 -8 1 -17 -3 -26 -9 -22 -7 4 -9 -8 -5 -36 3 -23 7 -44 8 -46 5 -4 87 20
172 51 39 14 111 30 161 37 82 10 99 9 170 -9 43 -11 131 -45 194 -75 63 -31
147 -68 185 -83 39 -14 72 -29 75 -33 3 -3 14 -8 25 -10 32 -7 392 -8 483 -2
45 3 82 5 82 5 0 -1 -30 -20 -66 -43 -37 -23 -64 -44 -62 -47 5 -5 265 -52
658 -119 146 -25 272 -47 280 -50 15 -4 275 -25 555 -45 83 -6 204 -17 270
-25 161 -20 336 -35 413 -35 l62 0 0 1631 0 1631 -271 -4 c-241 -4 -272 -3
-276 11 -3 9 -14 25 -23 36 -10 11 -20 29 -22 40 -2 11 -7 -36 -11 -104z"/>
<path d="M5559 5180 c-9 -27 -12 -50 -7 -50 12 0 10 -34 -4 -48 -6 -6 -10 -13
-7 -15 2 -3 61 -7 132 -10 131 -7 138 -5 115 32 -9 15 -9 26 0 45 8 18 8 34 1
56 l-11 30 -88 0 c-49 0 -95 2 -102 5 -10 4 -19 -10 -29 -45z"/>
<path d="M3730 5042 l-85 -3 3 -347 c2 -191 7 -351 12 -357 5 -6 46 -9 97 -7
l88 3 2 132 c5 230 -8 575 -21 579 -6 2 -49 2 -96 0z"/>
<path d="M8572 4908 c4 -40 6 -84 3 -97 -6 -23 -5 -23 41 -16 61 9 82 23 95
62 8 24 7 40 -5 66 -18 43 -42 57 -98 57 l-44 0 8 -72z"/>
<path d="M6361 4680 c-24 -5 -45 -11 -46 -12 -2 -2 -5 -25 -6 -53 l-3 -50 156
-3 156 -2 4 37 c3 21 3 44 0 50 -10 29 -180 50 -261 33z"/>
<path d="M4990 4660 c-17 -17 -20 -33 -20 -115 l0 -95 45 0 45 0 2 73 c2 106
-2 131 -20 145 -22 16 -29 15 -52 -8z"/>
<path d="M5237 4534 c-4 -4 -7 -19 -6 -33 1 -25 1 -25 7 -3 10 33 26 32 30 0
2 -20 -1 -28 -12 -28 -26 0 -35 -75 -11 -92 6 -5 3 -8 -6 -8 -35 0 -40 -25
-46 -238 -7 -251 -5 -262 42 -262 19 0 35 5 35 10 0 13 73 13 87 -1 6 -6 23
-9 39 -7 l29 3 3 234 c2 173 -1 237 -10 242 -7 5 -12 38 -12 93 0 69 -3 87
-15 90 -30 7 -147 7 -154 0z m33 -229 c5 -28 6 -28 12 -7 4 16 11 20 23 15 16
-5 17 -17 12 -96 -6 -90 -19 -126 -36 -98 -7 11 -10 9 -16 -8 -7 -23 -25 -27
-43 -9 -13 13 -17 192 -6 223 11 28 48 14 54 -20z"/>
<path d="M9415 4521 l-30 -6 -3 -188 c-3 -175 -2 -187 15 -187 16 0 18 -9 16
-98 -1 -53 -2 -214 -2 -358 l0 -260 -36 4 c-30 4 -35 1 -35 -17 0 -20 5 -21
110 -21 67 0 110 4 110 10 0 11 -11 13 -52 10 l-28 -2 0 367 c0 223 4 364 9
360 5 -3 12 -1 16 5 3 5 1 10 -6 10 -8 0 -8 4 -1 13 5 6 9 27 7 44 -1 18 1 31
5 28 3 -2 7 2 7 10 0 8 -4 12 -8 10 -4 -3 -9 2 -12 9 -3 8 -1 17 6 20 7 2 4 5
-6 5 -10 1 -15 6 -12 11 4 6 11 7 17 4 7 -4 6 0 -1 13 -5 11 -7 33 -4 49 5 27
7 98 2 137 -1 9 -8 17 -15 17 -7 0 -18 2 -26 4 -7 2 -26 1 -43 -3z"/>
<path d="M9327 4395 l-38 -45 -79 0 c-90 0 -94 -4 -92 -92 0 -36 -3 -48 -16
-51 -9 -3 39 -5 107 -6 98 -1 121 2 113 12 -5 6 -13 41 -16 76 -6 57 -4 67 15
87 15 16 26 21 34 14 8 -7 12 -5 12 5 0 8 -5 15 -10 15 -5 0 -4 7 3 15 7 8 11
15 8 15 -2 0 -21 -20 -41 -45z"/>
<path d="M5863 4005 c-20 -9 -23 -17 -24 -75 0 -74 -7 -131 -15 -139 -3 -3
-80 -7 -172 -8 l-166 -1 -58 -67 c-54 -62 -71 -95 -48 -95 6 0 10 7 10 16 0
20 62 16 72 -6 6 -13 7 -13 7 1 1 27 59 31 73 5 8 -15 8 -21 -1 -24 -6 -2 -8
-8 -5 -14 4 -6 0 -7 -12 -1 -23 11 -105 10 -124 -2 -9 -6 -11 -4 -5 6 8 12 6
12 -8 1 -14 -12 -17 -10 -23 14 -6 22 -9 25 -18 13 -6 -8 -23 -23 -37 -34 -20
-16 -24 -25 -18 -40 6 -17 8 -17 8 -2 1 14 11 17 66 17 45 0 65 -4 65 -12 0
-9 2 -10 8 -2 10 16 78 11 74 -5 -1 -7 2 -9 8 -6 6 4 9 13 6 21 -3 8 -3 14 0
14 2 0 9 -10 14 -22 9 -23 9 -23 10 2 0 14 4 20 8 14 7 -10 79 -18 159 -17 29
1 43 -4 48 -14 3 -9 4 -18 2 -20 -2 -2 -62 -3 -133 -3 -71 1 -139 1 -151 1
-13 -1 -23 4 -23 10 0 8 -4 8 -14 0 -11 -10 -16 -8 -21 8 -7 23 -34 18 -36 -8
-1 -9 -4 -6 -9 9 -7 23 -8 23 -9 3 -1 -20 -5 -21 -72 -18 -66 2 -76 0 -145
-37 -41 -22 -82 -38 -91 -36 -9 2 11 17 49 36 58 29 65 35 60 58 -4 23 -2 25
31 22 21 -1 46 6 63 18 l29 19 -37 3 c-34 3 -38 6 -38 30 1 26 1 26 15 8 8
-11 15 -14 15 -8 0 8 17 12 44 12 43 0 47 3 115 78 57 62 71 83 71 110 0 47
-28 43 -32 -5 l-3 -38 -135 0 -135 0 -6 35 c-4 19 -7 31 -9 25 -1 -5 -3 -14
-5 -20 -1 -5 -3 -31 -3 -57 l-2 -48 -112 0 c-159 0 -158 0 -158 71 l0 59 -39
0 c-21 0 -52 -3 -69 -6 l-30 -6 -4 -157 c-2 -86 -3 -157 -2 -159 1 -2 35 -12
75 -22 41 -10 114 -33 162 -49 75 -27 102 -31 187 -31 54 0 129 6 167 14 120
25 154 28 383 31 124 2 245 7 270 10 87 12 90 14 92 54 l1 36 4 -33 c4 -29 7
-33 26 -28 12 3 26 6 30 6 5 0 5 4 2 10 -3 6 1 7 9 4 9 -3 16 -1 16 6 0 6 4 9
10 5 5 -3 39 5 75 17 51 18 65 27 65 43 0 15 -3 17 -9 7 -7 -11 -9 -11 -14 2
-5 11 -1 16 13 16 11 0 20 -9 23 -22 l4 -23 2 23 c0 13 5 20 11 17 10 -6 84
64 77 72 -4 3 -121 12 -164 13 -20 0 -23 5 -23 45 l0 45 -47 0 c-27 0 -93 -5
-147 -10 -67 -7 -103 -6 -112 0 -6 6 -15 46 -19 88 -4 43 -10 91 -13 108 -6
26 -10 28 -29 19z"/>
<path d="M3197 4003 c-5 -7 -5 -13 0 -13 4 0 1 -5 -7 -10 -10 -6 -11 -10 -2
-10 7 0 12 -14 12 -35 0 -21 -5 -35 -12 -35 -10 0 -10 -2 -1 -8 15 -10 13 -52
-3 -52 -6 0 -23 -11 -38 -25 -20 -19 -26 -20 -26 -8 0 9 10 24 22 34 19 17 19
19 3 19 -10 0 -23 -8 -30 -17 -11 -15 -15 -15 -29 -4 -14 11 -14 16 -4 23 8 5
3 6 -13 3 -33 -8 -62 20 -33 32 11 5 19 17 19 28 0 11 5 20 12 20 6 0 15 4 20
9 4 5 -3 6 -19 2 -17 -4 -32 -1 -42 9 -19 19 -26 19 -26 0 0 -8 -8 -15 -18
-15 -10 0 -26 -10 -37 -22 -15 -18 -20 -19 -23 -8 -3 8 -11 19 -18 23 -8 4
-15 20 -15 35 -1 19 -3 21 -6 9 -4 -17 -12 -18 -82 -12 -67 6 -79 5 -84 -10
-4 -9 -3 -13 3 -10 5 3 18 1 27 -4 16 -9 16 -10 -4 -11 -14 0 -23 -6 -23 -15
0 -9 9 -15 25 -15 30 0 33 -16 4 -23 -31 -8 -12 -30 22 -25 16 3 29 1 29 -4 0
-4 9 -8 21 -8 16 0 19 -4 14 -21 -7 -20 -5 -21 24 -16 31 7 44 -9 17 -19 -12
-5 -13 -11 -4 -30 13 -28 17 -29 54 -10 30 16 44 13 44 -11 0 -13 3 -13 15 -3
8 7 15 9 15 5 0 -4 7 -2 15 5 13 11 15 9 15 -13 0 -18 6 -26 25 -29 14 -3 30
1 36 8 6 8 18 14 25 14 8 0 14 9 14 20 0 11 5 20 10 20 6 0 10 -11 10 -24 0
-14 -4 -28 -10 -31 -5 -3 -10 -14 -9 -23 0 -11 3 -12 6 -4 2 6 9 12 15 12 6 0
17 8 24 17 19 27 25 12 12 -30 -9 -28 -18 -39 -37 -43 -14 -3 -39 -11 -56 -19
-16 -8 -43 -17 -60 -21 -16 -4 -43 -16 -58 -27 -26 -18 -34 -18 -85 -8 -31 6
-79 22 -107 35 -27 13 -76 29 -108 36 -65 15 -84 9 -103 -30 -7 -13 -36 -32
-70 -46 -65 -27 -98 -21 -110 20 -10 32 -24 45 -40 39 -10 -3 -12 -13 -8 -27
5 -16 4 -18 -6 -9 -13 12 -30 6 -76 -28 -21 -15 -22 -16 -3 -27 10 -7 19 -8
19 -3 0 5 20 9 44 8 35 -2 42 -5 34 -15 -16 -19 0 -28 18 -10 21 21 9 40 -21
32 -12 -3 -26 -1 -29 4 -8 14 45 22 67 11 10 -6 15 -14 12 -19 -4 -6 2 -7 12
-3 22 8 -132 -141 -169 -164 -16 -10 -28 -21 -28 -25 0 -4 -7 -5 -15 -1 -9 3
-15 2 -14 -3 3 -20 -2 -34 -12 -34 -6 0 -9 7 -5 15 3 8 2 15 -2 15 -4 0 -13 4
-21 9 -18 12 7 84 27 76 15 -6 48 22 38 33 -4 3 -11 0 -16 -8 -8 -13 -12 -12
-27 3 -16 16 -16 17 -1 12 25 -10 42 3 27 21 -9 11 -9 14 1 14 7 0 19 -8 27
-17 12 -16 13 -15 11 12 -3 25 -7 30 -28 29 -14 -1 -28 4 -32 10 -13 18 -9 36
7 36 19 0 19 10 -2 35 -12 16 -14 16 -10 3 3 -10 2 -20 -3 -23 -5 -3 -11 3
-13 12 -3 10 -5 5 -4 -11 2 -23 -5 -35 -32 -53 -19 -13 -49 -23 -67 -23 -24 0
-43 -9 -66 -31 -19 -18 -26 -28 -15 -25 24 7 21 -1 -4 -15 -15 -8 -19 -8 -15
0 11 17 -7 12 -32 -9 -20 -16 -23 -27 -20 -74 l3 -56 52 0 52 0 3 -102 3 -103
40 3 c24 2 44 10 49 20 23 41 93 104 145 129 48 24 68 28 136 27 86 -1 132
-16 182 -58 l30 -25 22 23 c13 13 49 36 82 50 215 97 449 -66 425 -296 -7 -72
-35 -130 -90 -186 l-41 -43 128 7 127 7 0 -85 c0 -47 3 -100 6 -118 7 -31 9
-32 45 -27 21 3 53 16 71 30 24 18 51 26 103 32 39 3 120 13 180 20 61 8 139
17 175 20 148 15 394 56 401 67 9 15 -6 35 -32 43 -10 4 -19 13 -19 21 0 8
-14 29 -32 46 l-31 30 -256 -11 c-141 -6 -336 -11 -433 -11 l-178 0 0 39 c0
95 -31 887 -35 899 -3 7 -9 11 -14 7 -5 -3 -13 0 -17 6 -4 8 -3 9 5 5 6 -4 14
-1 16 6 9 23 1 244 -8 231z"/>
<path d="M8472 3992 c-8 -2 -12 -38 -12 -123 l0 -119 105 0 105 0 0 115 c0 84
-3 117 -12 120 -19 6 -172 12 -186 7z"/>
<path d="M436 3942 c-37 -3 -38 -4 -34 -38 2 -18 1 -35 -3 -36 -6 -3 -21 -146
-27 -263 -2 -31 -4 -35 -20 -26 -11 6 -29 37 -41 70 -18 49 -30 66 -64 89 -61
41 -120 62 -177 62 l-50 0 1 -102 c0 -57 4 -156 7 -221 7 -118 3 -144 -17
-110 -7 13 -10 -182 -11 -636 l0 -654 128 7 c152 8 415 33 480 46 26 5 97 21
157 35 108 27 245 41 495 50 63 3 121 7 128 10 17 6 -29 97 -103 198 -31 44
-51 76 -46 72 7 -4 11 3 10 17 0 13 -3 18 -5 11 -8 -19 -33 -4 -78 45 -22 25
-52 55 -65 66 -13 12 -39 35 -58 51 -19 17 -72 55 -118 85 l-82 55 -7 100 c-4
55 -10 154 -14 220 -5 93 -10 120 -21 120 -8 0 -17 9 -22 20 -7 18 -8 18 -9
-5 -4 -52 1 -287 7 -349 3 -37 2 -62 -4 -60 -5 2 -59 30 -121 62 l-112 58 -1
92 -2 92 -10 -80 c-5 -44 -11 -82 -13 -84 -8 -9 -213 92 -219 107 -3 8 -3 42
1 74 l7 59 113 -7 114 -7 0 76 c0 68 -3 78 -24 94 -25 20 -43 95 -20 86 7 -2
15 0 19 6 3 6 1 11 -5 11 -6 0 -8 5 -3 13 17 28 13 45 -10 41 -19 -4 -20 -3
-3 4 22 10 30 43 13 54 -9 6 -9 8 0 8 18 0 11 40 -7 40 -8 1 -2 8 13 16 28 15
28 16 11 35 -9 10 -12 19 -6 19 18 0 11 68 -7 73 -11 3 -10 5 5 6 30 2 30 61
0 62 -19 0 -18 1 4 11 14 6 20 12 13 15 -7 2 -9 12 -6 20 5 12 2 15 -9 11 -9
-4 -19 -3 -24 0 -5 4 -26 6 -48 4z"/>
<path d="M9365 3882 c-16 -22 -20 -45 -22 -124 -2 -97 7 -124 27 -75 8 20 9
19 9 -10 1 -26 -2 -30 -19 -26 -19 5 -20 0 -20 -93 0 -60 4 -94 9 -85 5 7 7
23 5 35 -2 11 -2 15 2 9 8 -19 24 -16 25 5 1 11 4 9 9 -8 5 -15 8 26 6 105 -1
72 -5 136 -10 143 -4 6 -4 12 1 12 8 0 10 127 2 134 -2 2 -13 -8 -24 -22z"/>
<path d="M9490 3826 c0 -25 4 -36 15 -36 8 0 15 -4 15 -10 0 -5 -7 -7 -15 -4
-12 5 -15 -3 -15 -39 0 -50 11 -59 48 -43 20 10 23 16 18 49 -4 22 -2 37 4 37
5 0 10 -8 11 -17 1 -26 34 -78 49 -78 7 0 15 6 18 14 3 10 -2 11 -18 6 -16 -5
-21 -4 -18 6 3 8 19 14 36 14 21 1 41 10 59 28 l27 27 -21 20 c-22 20 -62 25
-98 11 -19 -8 -19 -8 0 -20 18 -11 18 -12 2 -7 -10 3 -22 6 -26 6 -4 0 -7 9
-7 20 0 11 6 20 13 20 7 0 13 5 13 10 0 6 -11 10 -25 10 -21 0 -25 -5 -25 -31
0 -20 -4 -29 -12 -26 -8 2 -12 19 -12 38 1 19 -1 28 -3 21 -4 -10 -8 -10 -19
-1 -12 9 -14 5 -14 -25z"/>
<path d="M1190 3842 c-18 -8 -23 -54 -6 -64 8 -6 8 -8 -1 -8 -9 0 -10 -7 -5
-22 9 -25 -9 -164 -19 -154 -4 4 -4 -5 -1 -19 2 -15 10 -29 17 -31 8 -3 13
-33 14 -87 1 -45 4 -116 7 -158 l6 -76 -36 -7 c-20 -4 -36 -11 -36 -17 0 -5
10 -7 23 -5 12 3 64 7 115 11 99 6 131 13 112 25 -6 4 -31 4 -56 0 l-46 -7 5
69 c2 45 9 73 18 80 10 7 8 8 -8 3 -20 -6 -22 -2 -25 67 -3 48 0 80 9 95 17
29 16 53 -2 118 -9 31 -14 73 -11 101 7 72 -1 94 -33 93 -14 0 -33 -3 -41 -7z"/>
<path d="M8090 3679 c0 -11 4 -18 9 -14 5 3 12 1 15 -4 4 -5 -2 -12 -11 -14
-17 -4 -17 -5 0 -6 18 -1 24 -17 8 -23 -5 -1 -12 -89 -16 -194 -7 -189 -7
-191 14 -197 11 -3 21 -10 21 -16 0 -15 -27 -14 -33 2 -3 6 -6 2 -6 -10 -1
-17 3 -20 21 -15 14 3 19 2 14 -6 -4 -7 -14 -12 -22 -12 -11 0 -14 -19 -14
-99 0 -55 3 -106 6 -115 5 -13 25 -16 110 -16 l104 0 0 358 c0 196 -3 367 -6
380 -6 21 -11 22 -110 22 -98 0 -104 -1 -104 -21z"/>
<path d="M3620 3621 c0 -6 21 -53 47 -105 l47 -95 27 14 c14 8 29 21 32 29 10
26 53 46 118 57 80 12 201 57 196 73 -2 7 -60 13 -173 17 -93 4 -197 10 -231
14 -43 5 -63 4 -63 -4z"/>
<path d="M1517 3483 c-3 -5 -8 -23 -12 -40 -6 -30 -11 -35 -31 -32 -7 1 -24
-22 -24 -33 0 -4 15 -8 33 -10 l32 -3 6 -103 c4 -57 9 -105 12 -109 4 -3 22 4
42 15 19 12 35 17 35 12 0 -5 -4 -11 -9 -14 -11 -7 -2 -48 13 -58 24 -16 -4
-18 -39 -4 -48 20 -47 21 -43 -11 3 -26 6 -28 46 -25 23 1 42 -2 42 -8 0 -10
-26 -14 -62 -11 -15 2 -18 -6 -18 -39 0 -41 1 -41 33 -38 28 3 32 6 29 31 -2
15 1 27 8 27 7 0 10 -14 8 -37 -3 -38 -3 -38 -53 -43 -58 -6 -40 -19 28 -21
37 -1 34 -3 -33 -18 -74 -16 -75 -16 -82 4 -5 15 -6 13 -7 -12 -1 -22 4 -33
15 -35 23 -4 201 6 207 12 10 10 11 41 3 275 -7 210 -10 244 -27 273 -10 18
-19 40 -19 48 0 11 -15 14 -64 14 -36 0 -67 -3 -69 -7z"/>
<path d="M2005 2794 c-44 -19 -101 -44 -126 -54 -65 -26 -200 -92 -197 -95 3
-3 512 32 552 37 15 2 6 11 -32 35 -28 17 -64 50 -79 72 -15 22 -30 40 -33 40
-3 1 -41 -15 -85 -35z"/>
</g>
</svg>
