<?xml version="1.0" standalone="no"?>
<!DOCTYPE svg PUBLIC "-//W3C//DTD SVG 20010904//EN"
 "http://www.w3.org/TR/2001/REC-SVG-20010904/DTD/svg10.dtd">
<svg version="1.0" xmlns="http://www.w3.org/2000/svg"
 width="1050.000000pt" height="1050.000000pt" viewBox="0 0 1050.000000 1050.000000"
 preserveAspectRatio="xMidYMid meet">
<metadata>
Created by potrace 1.16, written by Peter Selinger 2001-2019
</metadata>
<g transform="translate(0.000000,1050.000000) scale(0.100000,-0.100000)"
fill="#000000" stroke="none">
<path d="M6856 9152 c-7 -13 68 -22 173 -22 108 0 292 -17 327 -31 23 -8 31
-6 51 12 42 40 31 52 -39 43 -78 -9 -456 -9 -485 0 -12 4 -24 3 -27 -2z"/>
<path d="M7825 7700 c5 -16 1 -26 -14 -36 -25 -18 -28 -35 -3 -28 9 3 1 -4
-18 -14 -22 -13 -37 -16 -41 -10 -4 7 -9 7 -13 0 -8 -14 8 -24 28 -16 12 5 16
0 16 -19 0 -17 -7 -28 -19 -32 -13 -4 -18 -13 -16 -27 3 -11 0 -28 -5 -37 -5
-9 -10 -11 -11 -6 -1 6 -3 21 -5 35 -2 14 -6 41 -9 60 -3 19 -5 52 -6 72 -2
43 -10 42 -32 -5 -12 -25 -15 -57 -12 -134 1 -56 6 -106 10 -112 3 -6 3 -11
-2 -11 -4 0 -7 -42 -6 -92 3 -90 14 -152 35 -192 5 -10 10 -106 9 -221 0 -111
4 -215 8 -231 8 -28 8 -28 15 16 4 25 10 72 14 104 9 72 26 83 30 19 1 -25 8
-53 14 -61 10 -11 9 -17 -5 -27 -17 -12 -16 -14 6 -41 18 -22 24 -42 24 -84 1
-30 6 -66 12 -80 l9 -25 8 33 c4 20 10 29 14 22 13 -21 20 101 19 333 0 176 3
232 13 244 14 17 17 293 5 428 -4 39 -7 82 -7 96 0 28 -37 90 -59 97 -9 3 -11
-2 -6 -18z"/>
<path d="M4145 7340 c-22 -43 -64 -205 -71 -276 l-6 -61 68 -7 c38 -4 85 -9
105 -12 28 -4 38 -1 43 11 10 28 -1 33 -84 41 -44 3 -83 10 -85 15 -10 15 39
217 69 290 14 32 -23 30 -39 -1z"/>
<path d="M4692 7275 c-46 -51 -124 -171 -161 -242 -36 -72 -35 -69 -16 -77 10
-4 21 7 36 36 l21 41 76 -7 c42 -4 79 -9 83 -12 4 -2 10 -22 14 -44 5 -30 11
-40 26 -40 23 0 23 -6 3 96 -8 46 -18 127 -22 180 -4 57 -12 99 -18 101 -6 2
-25 -12 -42 -32z"/>
<path d="M6340 7285 c-44 -20 -64 -38 -111 -102 -79 -106 -136 -285 -140 -438
0 -27 -3 -69 -6 -93 -4 -35 -8 -40 -19 -31 -8 6 -42 14 -76 16 -35 3 -67 9
-73 13 -5 4 -39 11 -75 14 -66 7 -92 15 -169 48 -31 14 -60 19 -102 16 -68 -4
-69 -2 -69 101 0 35 -2 62 -5 59 -6 -5 -7 -434 -1 -463 2 -11 9 -52 16 -92
l12 -71 33 19 c26 16 48 20 97 17 35 -2 66 -7 70 -13 4 -6 8 -2 8 8 0 9 7 17
16 17 8 0 13 -3 11 -7 -3 -5 29 -8 72 -9 42 -1 110 -7 151 -14 41 -8 87 -12
103 -11 29 3 35 -7 15 -27 -8 -8 -8 -15 2 -27 7 -8 9 -15 4 -16 -5 0 0 -4 11
-9 17 -7 17 -9 3 -9 -10 -1 -18 -5 -18 -11 0 -5 -6 -10 -13 -10 -8 0 -14 7
-14 15 0 8 5 11 10 8 5 -3 8 0 5 8 -3 8 -20 13 -46 14 -30 0 -41 -4 -37 -12 2
-7 2 -13 0 -13 -11 0 -50 26 -68 45 -18 20 -18 20 -11 -5 12 -46 15 -43 -58
-74 -42 -19 -52 -20 -43 -6 3 6 15 10 25 10 10 0 22 4 25 10 3 6 -14 7 -45 4
-38 -3 -50 -1 -50 9 0 14 76 16 118 3 13 -5 22 -3 22 3 0 6 -5 11 -11 11 -5 0
-7 5 -4 10 3 6 2 10 -4 10 -5 0 -12 -6 -14 -12 -4 -10 -7 -10 -15 0 -6 9 -18
11 -37 6 -22 -5 -27 -4 -23 7 4 8 9 23 13 34 6 19 6 19 -8 3 -8 -10 -17 -14
-22 -10 -4 4 -4 -4 -1 -18 6 -19 5 -21 -3 -10 -6 8 -11 27 -11 43 0 17 -5 27
-15 27 -13 0 -14 -4 -5 -21 10 -17 6 -25 -25 -53 l-36 -33 -9 -124 c-5 -68
-11 -248 -15 -400 -3 -151 -10 -288 -15 -305 -19 -58 -22 -63 -39 -69 -44 -14
-180 -24 -318 -25 -85 0 -154 -4 -158 -9 -11 -19 68 -23 262 -12 214 12 307
27 373 61 l42 21 24 -22 c18 -17 24 -32 23 -59 -3 -51 9 -84 26 -70 26 22 95
-30 129 -97 25 -49 21 -85 -13 -107 -40 -27 -51 -68 -56 -208 -7 -219 -18
-368 -26 -374 -13 -7 -11 -52 2 -59 6 -4 8 -14 4 -23 -3 -8 -5 -194 -5 -413 0
-376 -1 -399 -19 -416 -24 -24 -35 -71 -20 -89 6 -8 15 -11 20 -8 5 3 10 -6
11 -20 0 -14 1 -32 2 -38 1 -7 6 -16 11 -20 7 -5 7 -8 0 -8 -5 0 -11 -11 -11
-25 -1 -14 2 -23 6 -20 8 5 5 -39 -4 -54 -4 -5 -2 -12 4 -16 5 -3 10 -2 10 3
0 18 71 81 116 103 38 20 44 27 44 54 0 37 29 79 70 100 28 15 29 14 47 -23
14 -29 28 -41 66 -55 69 -25 198 -45 367 -57 180 -12 268 -28 280 -51 6 -10 5
-40 0 -75 l-10 -59 47 -45 c26 -25 47 -48 46 -52 -2 -4 4 -22 12 -42 8 -19 22
-77 32 -128 14 -79 17 -190 20 -743 3 -357 1 -670 -2 -695 -7 -44 -8 -45 -22
-22 -23 33 -33 27 -32 -20 0 -38 2 -40 11 -21 l11 22 19 -25 c19 -23 20 -39
16 -313 -2 -224 -6 -292 -17 -304 -11 -14 -11 -18 3 -23 9 -3 16 -10 16 -15 0
-5 -11 -4 -25 1 -27 10 -105 -13 -105 -31 0 -5 -9 -9 -20 -9 -12 0 -55 -18
-96 -40 -59 -31 -87 -40 -127 -41 l-52 -1 55 -17 c30 -10 72 -28 92 -40 21
-13 42 -20 48 -16 5 3 10 2 10 -3 0 -5 6 -9 13 -10 6 -1 30 -3 52 -6 86 -9
160 -27 167 -40 9 -15 141 -14 161 2 7 5 28 12 47 16 68 13 171 58 187 82 14
23 14 26 -11 59 l-27 34 23 5 c13 3 39 7 58 10 33 6 91 33 164 77 17 10 45 25
61 32 17 8 49 30 72 50 l43 35 65 -23 c90 -33 82 -16 -10 19 -41 16 -75 32
-75 37 0 5 9 14 20 21 24 15 27 30 5 21 -13 -4 -15 1 -12 31 3 23 -1 42 -9 51
-16 15 -19 29 -5 21 5 -3 11 1 15 9 3 8 1 15 -5 15 -6 0 -7 5 -4 10 3 6 2 10
-4 10 -10 0 -9 10 6 48 11 29 11 51 -2 56 -15 6 -12 101 5 120 7 10 8 16 1 21
-7 4 -5 15 5 31 14 21 14 24 1 24 -8 0 -17 7 -20 14 -4 10 -1 13 7 10 23 -9
29 42 11 87 -3 10 -2 20 4 24 6 3 11 11 11 16 0 6 -5 7 -12 3 -8 -5 -9 -2 -3
12 7 18 8 58 1 99 -2 11 2 26 8 34 9 12 8 13 -2 7 -11 -7 -12 -4 -3 13 7 12 9
25 6 30 -3 5 2 17 11 26 21 21 40 6 55 -46 7 -21 21 -49 33 -61 12 -12 20 -24
19 -25 -2 -2 -3 -11 -3 -20 0 -10 4 -14 8 -8 10 14 32 17 46 7 40 -32 121 -14
208 46 28 19 49 27 54 22 6 -6 23 -6 44 0 19 5 59 8 88 6 28 -2 52 1 52 6 0 5
6 8 13 7 33 -4 68 2 62 11 -4 6 8 10 29 10 19 0 38 4 41 10 4 6 -1 7 -12 4
-16 -5 -16 -4 2 10 11 9 38 21 60 27 22 6 52 17 67 24 31 15 48 3 21 -15 -16
-10 -15 -11 7 -6 14 3 29 6 33 6 4 0 3 9 -3 19 -12 23 0 34 25 25 12 -5 16 -2
13 12 -2 12 4 19 17 22 17 3 18 1 5 -8 -12 -10 -12 -11 5 -5 18 6 262 -35 330
-56 17 -4 48 -7 70 -4 22 2 32 2 22 -1 -14 -4 -16 -9 -7 -20 10 -11 14 -11 26
1 8 8 21 12 29 9 20 -8 8 -53 -19 -76 -24 -19 -12 -44 14 -28 10 7 11 10 3 10
-7 0 -13 5 -13 11 0 6 8 8 19 4 24 -7 37 11 20 31 -6 8 -8 18 -4 22 4 4 10 1
12 -5 3 -7 11 -13 18 -13 8 0 18 -7 23 -16 5 -9 12 -15 15 -15 19 3 27 0 27
-9 0 -5 -7 -10 -16 -10 -9 0 -14 -6 -11 -12 2 -7 -3 -18 -12 -25 -14 -10 -13
-11 7 -6 13 3 22 1 22 -6 0 -7 7 -11 16 -9 10 2 20 -7 25 -21 8 -19 7 -22 -4
-13 -10 8 -16 9 -24 1 -8 -8 -15 -6 -24 9 -10 16 -16 18 -26 10 -13 -11 -17
-2 -14 32 1 9 -8 4 -23 -13 -14 -15 -28 -27 -31 -27 -21 1 -25 -1 -20 -10 3
-5 1 -10 -4 -10 -16 0 -13 20 4 26 16 7 21 34 6 34 -6 0 -21 10 -35 23 -19 18
-22 26 -14 41 8 13 7 17 0 12 -12 -7 -52 27 -52 43 0 6 -5 13 -12 17 -7 4 -8
3 -4 -4 4 -7 2 -12 -3 -12 -6 0 -11 -10 -11 -22 0 -18 2 -20 10 -8 6 10 12 11
18 5 13 -14 32 -74 31 -99 l0 -21 -9 21 c-11 28 -28 38 -63 40 -33 2 -42 8
-32 24 5 8 10 8 20 0 9 -8 15 -8 20 0 3 5 1 10 -4 10 -6 0 -11 7 -11 15 0 8
-7 15 -15 15 -8 0 -15 -4 -15 -9 0 -5 -26 -9 -57 -8 -62 1 -103 -9 -103 -24 0
-5 5 -9 10 -9 6 0 10 -7 10 -16 0 -10 5 -14 16 -10 8 3 12 2 9 -4 -11 -17 -37
-11 -42 11 -3 12 -11 18 -19 15 -8 -3 -14 -1 -14 4 0 11 -109 10 -116 -2 -8
-12 -42 -9 -48 5 -4 6 -4 2 -2 -10 3 -15 0 -20 -10 -16 -8 3 -14 9 -14 14 0 6
-8 6 -19 0 -10 -6 -22 -7 -26 -3 -5 4 -5 1 -1 -6 5 -7 1 -12 -9 -12 -11 0 -15
-5 -12 -15 9 -23 -9 -26 -28 -5 -10 11 -22 20 -26 20 -11 0 11 -50 23 -51 19
-3 24 -5 36 -12 7 -5 12 -3 12 4 0 19 10 5 15 -20 3 -14 0 -21 -8 -18 -7 2
-17 -3 -23 -11 -9 -13 -12 -11 -18 12 -4 15 -11 24 -15 21 -5 -3 -7 -14 -4
-25 3 -11 1 -20 -5 -20 -6 0 -13 8 -15 17 -4 17 -5 17 -6 1 0 -10 8 -26 20
-37 13 -12 17 -21 10 -26 -6 -3 -11 -1 -11 5 0 6 -4 9 -9 5 -6 -3 -15 3 -21
12 -8 15 -9 13 -5 -12 3 -16 3 -25 -1 -18 -3 7 -12 9 -20 6 -8 -3 -14 0 -14 6
0 6 5 11 10 11 6 0 10 9 10 21 0 11 -4 18 -9 14 -5 -3 -12 -1 -16 5 -3 5 2 10
12 10 17 1 17 2 -1 15 -22 17 -17 29 7 19 9 -3 18 -15 20 -27 4 -21 4 -20 6 2
0 13 -7 30 -16 38 -16 13 -16 13 4 4 12 -6 24 -16 26 -23 3 -7 6 -2 6 12 0 14
-6 33 -13 42 -12 17 -15 16 -40 -7 -28 -26 -42 -33 -31 -14 5 6 -8 9 -37 8
-40 -2 -44 -5 -44 -28 -1 -37 -15 -81 -25 -81 -13 0 -11 -34 2 -47 8 -8 8 -17
0 -32 -10 -17 -9 -21 4 -21 9 0 18 -7 21 -15 5 -13 9 -13 23 -3 14 12 15 11 2
-5 -11 -14 -16 -15 -29 -5 -12 10 -16 10 -19 1 -3 -7 -12 -13 -21 -13 -15 -1
-14 -3 2 -15 11 -8 15 -15 9 -15 -15 0 -10 -79 6 -89 9 -6 9 -10 2 -12 -6 -2
-12 -17 -13 -33 -1 -15 -8 -31 -15 -33 -19 -7 4 -45 25 -41 9 2 24 -5 33 -16
14 -17 14 -21 -8 -42 -13 -13 -28 -24 -33 -24 -6 0 -10 -4 -10 -10 0 -9 15
-14 33 -11 5 1 6 -3 2 -8 -3 -6 -12 -8 -19 -5 -9 3 -13 -3 -13 -19 0 -23 2
-22 39 17 35 36 39 45 34 78 -4 21 -2 40 4 43 6 4 7 11 4 17 -7 12 13 28 36
28 12 0 13 -2 1 -9 -8 -5 -10 -14 -6 -21 5 -8 4 -11 -3 -6 -18 11 -23 -11 -6
-28 14 -15 14 -16 0 -16 -9 0 -16 -5 -16 -11 0 -5 4 -8 9 -4 5 3 13 0 17 -6 5
-8 3 -9 -6 -4 -10 6 -12 4 -7 -8 3 -10 2 -17 -3 -17 -5 0 -7 -7 -3 -16 3 -10
0 -20 -9 -25 -8 -5 -21 -29 -28 -54 -7 -24 -20 -50 -28 -57 -12 -10 -14 -10
-8 0 4 7 2 12 -6 12 -10 0 -9 3 2 10 8 5 11 12 8 15 -10 10 -30 -5 -25 -18 5
-15 -11 -47 -23 -47 -5 0 -8 9 -7 19 0 11 5 17 9 15 12 -8 9 11 -4 24 -18 18
-25 15 -32 -18 -8 -41 -7 -45 10 -42 8 2 14 -2 14 -7 0 -6 6 -8 13 -5 18 6 49
-30 52 -61 4 -33 -6 -32 -27 5 -11 19 -13 30 -6 30 9 0 9 3 1 11 -18 18 -31 2
-27 -31 2 -16 -1 -30 -7 -30 -6 0 -7 -4 -4 -10 3 -5 1 -10 -6 -10 -7 0 -9 -3
-6 -6 4 -4 13 -1 22 6 12 10 15 10 15 -4 0 -9 4 -16 8 -16 4 0 8 -8 8 -19 0
-16 -4 -17 -24 -8 -18 8 -25 8 -32 -3 -7 -11 -12 -11 -32 2 -14 9 -31 12 -43
8 -17 -6 -14 -9 20 -19 71 -22 166 -24 275 -7 135 21 142 22 160 29 8 3 31 8
50 11 19 3 46 8 60 11 72 13 222 36 270 41 73 7 83 8 95 16 18 11 198 29 229
23 17 -4 60 -16 96 -26 61 -19 234 -50 365 -66 129 -17 462 -2 548 23 14 5 17
18 17 85 0 77 -1 79 -22 75 -13 -3 -94 -8 -180 -11 -86 -3 -163 -7 -171 -10
-11 -5 -14 11 -17 72 -4 102 -4 110 3 233 9 149 18 328 22 445 2 80 7 108 24
136 40 68 92 240 101 334 8 81 25 1010 21 1128 -2 60 15 470 31 758 l12 216
-27 46 c-15 26 -37 52 -48 58 -40 21 -76 65 -94 114 -10 28 -33 67 -51 87 -18
20 -36 53 -40 74 -8 41 1 232 21 499 8 99 15 224 15 277 0 93 -1 98 -25 114
-20 13 -37 15 -83 9 -31 -4 -91 -9 -132 -10 l-75 -2 0 39 c-1 30 4 39 20 45
11 4 25 6 32 5 20 -4 23 15 8 52 -13 30 -14 77 -9 298 7 257 6 264 -15 315
-32 73 -76 110 -139 116 l-52 5 17 -31 c19 -37 19 -78 5 -232 -8 -76 -8 -122
-1 -149 14 -53 19 -147 8 -140 -5 3 -9 -16 -9 -43 -1 -26 -2 -71 -4 -100 -1
-29 1 -50 6 -47 13 8 66 -34 73 -59 13 -41 39 -97 46 -97 4 0 6 -12 4 -27 -3
-31 -2 -31 -89 -12 -45 9 -63 10 -77 1 -10 -7 -33 -13 -51 -13 l-33 -2 35 -7
c28 -6 19 -8 -45 -10 -44 -2 -87 -3 -95 -2 -42 3 -98 12 -125 21 l-30 9 30 2
c25 2 22 4 -15 10 -147 23 -189 33 -223 49 -20 10 -39 16 -41 12 -2 -3 -9
-204 -16 -446 -7 -260 -17 -445 -22 -452 -6 -7 -16 -13 -22 -13 -26 0 -66 -55
-66 -91 0 -53 -28 -82 -90 -93 -14 -3 -48 -34 -65 -61 -17 -26 -21 -62 -32
-255 -22 -375 -33 -679 -37 -1015 -2 -176 -7 -448 -11 -605 -8 -312 -5 -341
52 -453 13 -27 23 -51 21 -53 -2 -2 -30 -6 -62 -10 l-59 -7 7 189 c8 240 23
1027 36 1944 5 393 12 878 16 1077 4 299 3 362 -8 358 -7 -3 -13 -15 -14 -28
-1 -12 -3 -71 -5 -131 l-3 -109 -31 -13 -30 -13 33 -1 c33 0 38 -11 34 -70 0
-8 -2 -67 -3 -131 -1 -112 -2 -117 -25 -127 -100 -46 -540 -38 -656 13 -16 6
-18 -1 -18 -82 0 -49 -2 -92 -5 -95 -3 -3 -17 -3 -30 0 -21 4 -26 12 -31 54
-5 39 -10 48 -22 43 -8 -3 -19 0 -23 6 -4 7 -14 9 -25 4 -18 -7 -18 -7 0 -14
18 -7 18 -8 2 -14 -10 -4 -26 -7 -37 -7 -10 0 -19 -4 -19 -9 0 -5 -11 -12 -24
-15 -19 -5 -26 -15 -31 -46 -7 -43 -18 -48 -59 -27 -19 10 -41 12 -87 5 -33
-4 -65 -10 -70 -14 -50 -31 120 -63 335 -63 65 0 120 -2 121 -3 3 -6 -14
-1179 -19 -1303 -3 -71 -6 -140 -6 -153 0 -14 -4 -21 -11 -17 -6 4 -8 13 -5
21 3 8 1 14 -4 14 -4 0 -11 13 -15 30 -4 16 -11 30 -16 30 -5 0 -9 4 -9 10 0
10 -37 70 -71 114 -13 16 -36 37 -53 47 -33 20 -106 26 -106 9 0 -5 -7 -10
-15 -10 -37 0 -107 -75 -88 -94 4 -3 1 -6 -6 -6 -7 0 -9 -4 -6 -10 3 -5 -1
-10 -11 -10 -12 0 -9 -8 15 -32 42 -43 71 -106 71 -154 0 -25 -3 -34 -9 -26
-6 10 -14 4 -29 -22 -21 -36 -22 -46 -26 -681 -4 -430 -2 -646 5 -651 6 -3 6
-10 1 -17 -5 -7 -12 -50 -14 -97 -3 -52 -2 -77 4 -65 6 15 7 13 3 -10 -9 -50
-11 -93 -4 -89 4 2 10 -3 13 -12 8 -22 8 -26 -4 -19 -6 3 -7 -1 -4 -10 5 -12
10 -13 20 -4 15 12 34 4 33 -14 0 -8 -2 -8 -6 1 -4 10 -8 9 -19 -5 -17 -23
-18 -37 -1 -30 15 6 22 -69 7 -78 -5 -3 -4 -19 1 -38 17 -58 11 -256 -10 -330
-20 -72 -82 -177 -105 -177 -8 0 -20 19 -28 42 l-13 43 -53 -2 -52 -2 1 177
c1 183 14 480 18 427 2 -28 3 -29 11 -8 5 13 15 23 22 24 7 0 4 4 -7 9 -18 7
-19 8 -2 15 18 7 24 25 8 25 -5 0 -17 -8 -27 -17 -16 -17 -17 -10 -11 137 4
85 10 261 13 390 8 345 32 852 45 952 15 110 8 144 -42 210 -22 29 -42 64 -45
78 -3 14 -12 43 -20 65 -8 23 -14 44 -14 48 0 4 30 22 66 40 61 31 65 35 50
49 -8 9 -20 18 -25 20 -5 2 -11 192 -13 466 l-3 464 -28 24 c-27 23 -63 35
-139 48 -48 9 -95 48 -106 90 -6 20 -6 126 0 267 7 171 7 248 -2 285 -15 71
-68 137 -137 170 -53 26 -55 27 -89 11 -19 -10 -44 -17 -55 -17 -49 0 -105
-48 -119 -102 -35 -131 -35 -122 -9 -174 22 -46 24 -62 27 -246 4 -223 -2
-248 -73 -327 -39 -43 -58 -49 -100 -29 -22 10 -25 16 -19 42 4 17 8 50 8 72
1 32 -3 41 -14 39 -8 -2 -19 -4 -25 -4 -6 -1 -6 -4 1 -9 6 -4 13 -17 16 -29 5
-18 2 -23 -13 -23 -16 0 -21 7 -21 30 0 3 3 15 7 28 4 16 2 22 -8 22 -10 0
-13 7 -10 20 3 11 0 20 -6 20 -6 0 -11 7 -11 15 0 8 -4 15 -10 15 -15 0 -12
17 4 23 10 4 13 1 9 -9 -5 -14 6 -18 37 -15 13 2 13 1 0 -8 -8 -5 -11 -13 -7
-18 5 -4 12 -1 17 7 12 19 12 30 0 30 -5 0 -7 6 -4 14 3 8 1 17 -5 21 -16 9
-13 36 6 57 15 17 15 18 0 18 -10 0 -17 5 -17 10 0 6 5 10 11 10 15 0 2 52
-17 66 -15 12 -20 29 -5 20 15 -10 21 22 6 34 -10 8 -16 7 -23 -5 -5 -10 -17
-15 -28 -12 -17 4 -17 6 4 12 16 5 22 14 20 29 -1 11 2 21 7 21 5 0 10 -6 11
-13 2 -7 15 -24 31 -38 30 -26 53 -33 34 -11 -8 10 -7 17 2 27 10 10 8 12 -10
7 -19 -4 -26 3 -47 47 -14 28 -25 45 -26 39 0 -7 -4 -13 -9 -13 -5 0 -7 9 -4
20 5 18 16 24 49 23 6 0 11 6 11 13 0 7 -5 10 -10 7 -5 -3 -13 0 -17 6 -5 9
-11 9 -22 -3 -18 -17 -28 -11 -28 16 0 10 -7 18 -15 18 -8 0 -15 5 -15 10 0 6
6 10 13 10 9 0 8 3 -2 9 -10 7 -9 11 6 22 22 16 26 59 5 59 -8 0 -10 -5 -6
-12 4 -8 3 -10 -2 -5 -9 9 -11 13 -13 44 -1 13 -4 14 -13 5 -17 -17 -24 -15
-43 14 -11 18 -14 29 -6 33 5 4 17 23 25 43 15 35 15 36 -7 31 -21 -4 -22 -4
-3 11 11 9 23 16 28 16 4 0 5 7 2 15 -7 16 -34 21 -34 5 0 -5 -7 -7 -15 -4 -8
4 -15 1 -15 -6 0 -6 -5 -8 -11 -4 -8 5 -8 9 1 14 10 6 9 12 -2 29 -14 20 -15
20 -35 1 -21 -19 -21 -19 -26 1 -3 10 -2 17 3 14 4 -3 10 4 13 15 3 11 1 23
-4 26 -6 3 -7 15 -4 27 5 17 4 19 -4 7 -7 -10 -11 -11 -11 -3 0 9 -10 11 -30
7 -19 -4 -30 -2 -30 5 0 6 11 11 25 11 16 0 25 6 25 16 0 14 -3 14 -15 4 -18
-15 -65 1 -65 22 0 9 -3 8 -11 -2 -9 -12 -10 -12 -7 -1 6 21 23 24 41 7 13
-14 16 -14 22 2 3 9 1 18 -5 20 -6 2 -16 10 -24 17 -7 8 -16 11 -20 8 -3 -4
-6 0 -6 9 0 8 3 18 7 21 3 4 7 20 7 35 1 23 -3 28 -17 24 -10 -2 -15 -7 -13
-10 3 -3 -4 -13 -16 -23 -27 -24 -36 -24 -16 -1 17 18 14 76 -5 100 -8 10 -5
11 17 3 22 -9 26 -8 26 7 0 13 2 14 9 3 7 -11 10 -11 17 0 4 7 3 14 -4 17 -7
2 -12 10 -12 18 0 8 -7 14 -15 14 -8 0 -15 4 -15 10 0 5 7 7 15 4 10 -4 15 0
15 12 0 11 7 28 15 38 15 19 15 19 15 -1 0 -12 5 -25 10 -28 6 -3 10 -1 10 4
0 6 4 11 8 11 9 0 10 -32 2 -38 -3 -2 -13 0 -23 4 -10 4 -23 2 -29 -4 -8 -8
-3 -13 16 -18 30 -7 58 10 49 32 -3 8 -1 14 5 14 6 0 13 -6 15 -12 4 -10 6
-10 6 -1 1 7 8 10 16 7 8 -4 12 -10 9 -15 -3 -5 1 -6 9 -3 8 3 18 1 22 -5 8
-14 26 -14 22 0 -1 6 4 14 12 17 10 3 12 0 8 -12 -4 -10 -1 -19 8 -22 8 -4 12
-11 8 -17 -4 -6 3 -8 19 -4 19 5 28 2 32 -9 3 -9 11 -12 18 -8 8 5 9 2 5 -9
-7 -18 8 -24 18 -7 4 7 14 5 26 -4 11 -7 29 -12 40 -9 12 4 19 0 19 -10 0 -8
-9 -17 -20 -20 -13 -3 -20 0 -20 9 0 19 -16 18 -24 -1 -7 -19 27 -37 57 -30
16 4 30 1 41 -10 15 -15 16 -15 16 2 0 12 7 19 19 19 11 0 17 -5 14 -13 -3 -7
0 -13 6 -13 6 0 11 -5 11 -11 0 -6 -7 -8 -16 -5 -8 3 -12 2 -9 -4 3 -6 -4 -10
-16 -10 -21 0 -22 -1 -4 -20 21 -23 37 -26 29 -6 -6 17 12 31 21 16 9 -15 45
33 45 60 0 11 4 18 10 15 5 -3 15 3 22 15 7 11 19 20 27 20 11 0 11 -3 1 -15
-10 -12 -10 -15 3 -15 8 0 17 -9 20 -20 3 -11 13 -20 22 -20 11 0 15 6 10 19
-3 10 1 24 10 31 8 7 15 19 15 27 0 9 6 13 15 9 9 -3 15 0 15 9 0 12 5 12 24
4 17 -8 29 -8 46 1 12 6 25 8 28 4 4 -4 1 -9 -6 -11 -6 -3 -9 -9 -6 -15 4 -6
0 -14 -7 -19 -10 -6 -4 -9 18 -9 38 0 53 -18 29 -36 -17 -12 -17 -14 2 -35 20
-21 21 -21 15 -1 -4 17 -1 20 18 15 14 -4 20 -2 16 4 -4 6 0 14 9 17 22 9 24
8 24 -10 0 -8 -4 -12 -10 -9 -13 8 -13 -5 0 -25 6 -10 10 -11 10 -2 0 6 9 12
21 12 16 0 19 -4 14 -22 -6 -19 -5 -21 6 -10 17 16 29 15 29 -3 0 -18 12 -19
27 -4 8 8 17 5 32 -10 22 -22 27 -41 11 -41 -5 0 -10 -7 -10 -15 0 -8 9 -15
20 -15 22 0 27 -16 8 -23 -7 -2 -10 -7 -7 -11 3 -3 16 4 29 16 32 30 56 13 52
-36 -3 -35 10 -49 22 -23 3 6 3 2 0 -10 -3 -13 -1 -23 4 -23 5 0 12 11 14 25
3 14 2 25 -2 25 -4 0 -10 10 -13 23 -6 20 -5 21 7 4 11 -14 15 -15 19 -5 3 8
6 9 6 1 1 -6 11 -9 24 -6 l22 4 -22 -13 c-16 -9 -20 -17 -13 -28 7 -11 12 -9
29 11 17 20 20 21 21 6 0 -10 5 -15 10 -12 6 3 13 -1 16 -10 5 -11 10 -13 19
-5 9 8 14 6 19 -6 8 -22 8 -26 -4 -19 -5 3 -10 1 -10 -4 0 -16 26 -13 44 4 20
20 33 19 39 -5 4 -17 8 -18 31 -7 27 13 36 51 14 60 -8 4 -7 6 3 6 23 1 29 48
29 238 0 168 -12 234 -46 247 -8 3 -14 12 -14 21 0 8 -7 15 -15 15 -8 0 -15 5
-15 10 0 6 4 10 9 10 16 0 21 30 8 50 -15 26 -23 25 -30 -1 -5 -18 -8 -19 -20
-8 -8 8 -12 20 -10 26 7 17 -9 17 -26 1 -10 -11 -12 -10 -9 2 2 11 -5 15 -24
15 -17 -1 -27 4 -25 12 1 6 -7 18 -18 26 -18 14 -17 16 28 22 50 8 60 22 27
42 -23 15 -51 7 -44 -11 8 -22 -76 -36 -213 -36 -70 0 -162 5 -203 10 -80 11
-163 38 -155 51 3 4 1 10 -5 14 -6 4 -7 11 -4 17 5 7 -14 8 -60 4 -56 -7 -66
-5 -66 8 0 21 -16 20 -24 -1 -6 -14 -9 -15 -15 -4 -6 10 -17 10 -46 2 -21 -6
-42 -8 -46 -5 -4 2 -10 0 -14 -6 -8 -12 -25 -13 -25 -2 0 5 10 14 23 20 20 10
21 11 2 11 -11 1 -31 -13 -44 -29 -21 -27 -28 -30 -67 -26 -29 3 -43 0 -41 -8
1 -6 -13 -12 -33 -12 l-35 -2 33 5 c18 2 30 9 27 14 -10 16 -44 10 -62 -11
-20 -23 -36 -25 -52 -6 -6 7 -21 11 -34 9 -12 -2 -30 2 -41 10 -26 19 -13 57
20 57 30 0 31 -8 2 -20 -17 -6 -18 -9 -6 -9 9 -1 23 5 30 12 14 14 99 10 126
-6 7 -5 12 -3 12 5 0 10 2 10 8 1 6 -9 19 -8 56 4 60 20 153 104 187 169 l24
46 65 -6 c36 -4 81 -11 101 -17 64 -16 358 -29 414 -17 104 22 179 78 162 122
-5 12 -13 13 -39 5 -18 -5 -55 -9 -82 -9 -46 0 -48 1 -34 18 8 9 19 29 26 44
10 25 16 27 45 23 53 -9 61 9 51 112 -4 49 -9 75 -11 58 -14 -141 -12 -135
-43 -135 -26 0 -29 4 -32 35 l-3 35 -22 -33 c-13 -18 -23 -51 -25 -76 -2 -35
-9 -50 -39 -78 -56 -53 -112 -75 -205 -81 -67 -4 -177 5 -269 22 -11 2 -58 9
-105 15 -256 35 -254 34 -283 98 -43 97 -38 305 10 364 43 54 87 89 122 100
33 10 49 7 136 -20 54 -18 106 -31 116 -29 16 3 16 7 -2 64 -23 73 -70 146
-121 187 -46 37 -123 46 -178 22z m408 -1135 c10 -17 10 -21 0 -25 -7 -2 -121
-9 -253 -15 -132 -6 -298 -15 -370 -20 -328 -24 -345 -24 -345 -8 0 21 24 29
40 15 9 -9 11 -9 7 -1 -8 14 20 27 28 14 4 -7 13 -6 25 0 10 5 27 10 37 9 16
0 16 -1 -2 -9 -13 -6 -5 -7 25 -3 25 3 47 10 48 15 2 4 13 8 25 7 21 0 21 -1
2 -8 -15 -6 -6 -9 33 -12 28 -2 52 -1 52 4 0 4 11 5 25 1 16 -4 25 -2 25 6 0
8 9 10 25 6 14 -4 25 -2 25 4 0 6 9 6 23 1 14 -5 30 -5 40 0 11 7 24 6 38 -2
18 -9 21 -9 17 2 -4 11 7 14 47 14 29 0 48 -3 42 -7 -7 -4 5 -8 26 -8 20 0 37
4 37 9 0 5 15 8 33 7 17 -2 37 0 42 3 6 3 38 6 73 7 35 1 66 5 69 8 14 13 49
5 61 -14z m2290 -1644 c134 -46 380 -76 628 -76 166 0 191 5 210 41 9 19 19
26 30 22 13 -5 13 -7 2 -14 -9 -6 -10 -9 -1 -9 7 0 10 -7 7 -15 -4 -9 0 -15 8
-15 16 0 38 -54 38 -94 0 -16 4 -25 10 -21 6 3 10 1 10 -4 0 -6 16 -28 35 -50
19 -21 35 -41 35 -44 0 -3 13 -27 30 -54 20 -32 33 -71 40 -118 14 -98 26
-361 24 -545 0 -85 -2 -320 -3 -521 l-1 -367 -22 -7 c-13 -4 -32 -8 -43 -8
-10 -1 -21 -12 -25 -23 -4 -17 -9 -20 -25 -13 -17 6 -17 8 -2 8 9 1 17 6 17
12 0 6 -8 9 -17 7 -24 -4 -31 -48 -8 -48 9 0 13 -5 10 -10 -4 -6 -11 -8 -16
-5 -5 4 -9 1 -9 -4 0 -6 9 -11 20 -11 11 0 20 5 20 11 0 5 5 7 10 4 6 -4 19 4
30 17 16 19 19 20 20 6 0 -22 20 -24 20 -3 0 8 5 15 12 15 8 0 10 -71 5 -284
-6 -265 -8 -289 -32 -363 -32 -103 -47 -118 -137 -137 -159 -34 -474 -47 -638
-25 -36 5 -90 11 -120 15 -97 10 -173 24 -249 46 -67 20 -75 25 -102 67 -56
88 -63 132 -60 391 2 254 6 296 27 304 20 8 18 72 -2 80 -15 6 -16 31 -10 279
4 149 11 493 16 762 7 373 13 504 24 545 20 78 25 88 47 95 16 5 19 17 20 63
2 102 3 107 24 114 11 3 20 6 21 7 0 1 32 -10 72 -23z m-610 -1597 c-40 -23
-46 -35 -51 -110 l-5 -76 33 -16 c23 -11 33 -22 32 -37 -1 -11 -5 -20 -10 -20
-4 0 -73 31 -153 69 -181 87 -183 93 -46 145 53 20 122 50 152 66 54 27 55 28
58 7 2 -11 -2 -24 -10 -28z m2 -588 l0 -109 -65 -7 c-35 -3 -105 -3 -155 1
-85 6 -90 8 -90 29 0 22 0 22 135 17 l135 -5 0 92 c0 84 1 91 20 91 19 0 20
-7 20 -109z m-324 -347 c114 -42 117 -46 110 -114 -5 -46 -4 -60 8 -67 8 -4
16 -17 18 -28 2 -16 -5 -22 -39 -30 -48 -12 -66 -25 -35 -25 12 0 22 -5 22
-11 0 -5 -4 -7 -10 -4 -5 3 -10 1 -10 -5 0 -6 -6 -8 -12 -4 -9 5 -10 4 -3 -4
6 -6 26 -13 45 -16 19 -2 -3 -3 -50 -1 -47 2 -99 9 -115 15 -28 11 -29 13 -12
25 15 11 15 14 3 18 -9 4 -15 18 -14 34 1 15 -2 76 -6 136 -8 126 -11 123 100
81z m711 -516 c-9 -6 -9 -10 1 -17 8 -4 13 -11 13 -15 -1 -3 2 -5 7 -3 4 1 6
5 5 8 -1 4 7 15 19 25 12 11 18 13 13 5 -6 -10 -4 -12 4 -7 7 5 10 15 7 23 -4
9 -1 13 6 11 33 -11 -7 -88 -46 -88 -12 0 -16 -5 -12 -16 4 -10 2 -14 -6 -11
-7 2 -12 10 -10 16 1 6 -2 11 -8 11 -12 0 -13 -11 0 -30 10 -17 32 -20 41 -7
3 4 12 1 19 -8 8 -10 9 -15 1 -15 -6 0 -11 -13 -11 -30 0 -16 5 -30 11 -30 5
0 7 -5 3 -12 -5 -8 -11 -6 -19 5 -15 21 -29 22 -22 3 3 -8 0 -17 -8 -20 -15
-6 -42 21 -31 31 4 4 11 1 16 -7 6 -8 10 -10 11 -5 0 6 3 24 5 40 3 21 2 26
-5 16 -8 -12 -12 -12 -24 -2 -18 14 -30 1 -18 -18 13 -20 -2 -64 -22 -67 -18
-2 -23 11 -8 20 5 4 11 0 13 -6 3 -7 5 1 5 19 0 27 -2 29 -14 17 -19 -18 -43
-18 -43 1 0 18 -11 19 -30 3 -12 -11 -12 -10 -2 3 6 9 8 19 4 23 -4 5 2 6 13
4 16 -2 19 2 17 20 -4 24 5 28 28 11 13 -9 13 -10 -2 -6 -12 4 -16 0 -15 -14
1 -19 27 -28 27 -10 0 5 9 13 20 16 11 3 20 10 20 15 0 5 -7 7 -15 4 -11 -5
-13 -2 -9 10 3 9 11 16 18 16 6 0 4 5 -4 10 -13 9 -13 12 2 24 12 9 14 16 7
23 -13 13 -2 36 12 28 5 -4 9 0 9 7 0 10 3 9 10 -2 6 -9 5 -17 -3 -22z"/>
<path d="M9655 3881 c-33 -15 -120 -51 -192 -81 -162 -64 -166 -73 -60 -126
91 -46 308 -144 319 -144 4 0 8 12 8 28 0 22 -7 30 -40 44 l-40 17 0 100 0
100 45 20 c36 16 45 25 45 45 0 32 -9 32 -85 -3z"/>
<path d="M9330 3406 c0 -23 2 -24 103 -31 56 -3 145 -5 197 -3 94 3 95 3 95
28 l0 25 -197 3 -198 3 0 -25z"/>
<path d="M9670 3150 l0 -110 -175 0 -175 0 0 -24 c0 -23 3 -24 103 -31 56 -3
145 -5 197 -3 l95 3 3 138 3 137 -26 0 -25 0 0 -110z"/>
<path d="M9312 2864 l3 -29 174 -8 c200 -10 221 -7 221 28 l0 25 -139 0 c-76
0 -166 3 -200 7 l-63 6 4 -29z"/>
<path d="M2489 6713 c-15 -2 -35 -13 -45 -24 -17 -19 -20 -60 -31 -547 -7
-290 -13 -539 -13 -553 0 -17 -8 -30 -22 -38 l-23 -12 23 5 22 4 0 -154 c0
-152 0 -154 -24 -170 -14 -8 -64 -22 -113 -31 -112 -19 -419 -13 -503 11 -30
8 -55 14 -57 12 -2 -1 -6 -575 -9 -1273 l-6 -1271 54 -11 c29 -6 93 -18 142
-26 48 -9 96 -20 106 -25 10 -6 57 -10 104 -10 79 0 86 -2 86 -20 0 -17 -7
-20 -46 -20 l-46 0 58 -64 c59 -63 59 -63 87 -47 15 8 27 19 27 23 0 18 31 6
61 -25 28 -27 34 -41 37 -88 2 -31 0 -59 -4 -61 -5 -3 -65 3 -134 13 -119 18
-128 18 -180 2 -83 -26 -174 -120 -233 -243 -64 -132 -90 -245 -91 -395 -1
-134 12 -199 55 -292 49 -103 112 -145 242 -158 70 -8 70 -20 1 -55 -27 -14
-67 -44 -89 -66 -45 -46 -130 -83 -211 -91 -35 -4 -96 3 -185 20 -136 27 -440
83 -1094 202 -198 36 -375 65 -393 65 -39 0 -53 -24 -26 -44 17 -13 238 -60
434 -92 52 -8 181 -31 285 -50 756 -139 746 -138 900 -129 144 8 145 8 269 -6
86 -9 298 -5 375 6 13 2 91 7 175 10 83 4 165 8 181 11 54 8 280 34 298 34 10
0 15 5 12 10 -3 6 4 10 17 10 15 0 19 -3 11 -8 -8 -5 1 -8 22 -9 35 -1 41 7
36 46 -2 7 2 10 9 6 7 -4 10 -16 7 -26 -4 -15 0 -19 22 -19 20 0 27 5 28 20 1
11 -2 20 -8 20 -5 0 -9 9 -9 21 0 15 -5 19 -15 15 -10 -3 -15 1 -15 13 0 10
-7 24 -15 31 -12 10 -15 10 -15 -4 0 -9 -6 -16 -14 -16 -15 0 -30 -56 -19 -73
3 -6 1 -7 -5 -3 -7 4 -12 14 -12 22 0 8 -5 12 -10 9 -6 -3 -10 -1 -10 5 0 6 6
13 13 16 7 2 14 20 15 38 2 26 -2 35 -17 39 -11 2 -24 0 -30 -6 -23 -23 -10 5
29 62 22 32 40 63 40 68 0 13 -72 23 -162 23 -44 0 -83 6 -104 16 -72 34 -112
158 -94 287 19 133 101 264 177 283 18 5 56 -3 119 -24 50 -17 109 -34 132
-38 l40 -6 -8 43 c-19 95 -49 158 -112 227 -36 40 -42 43 -155 66 -70 14 -117
29 -116 35 2 6 -2 11 -7 11 -6 0 -10 -5 -10 -12 0 -9 -3 -8 -12 1 -10 10 -10
15 -1 18 7 2 9 12 6 21 -6 14 -4 15 8 5 11 -9 18 -8 31 1 10 7 15 16 11 20 -4
4 -1 11 6 15 9 6 10 10 2 16 -7 4 -16 -6 -23 -25 -9 -27 -12 -30 -20 -16 -5 9
-8 22 -5 29 2 6 -3 18 -10 26 -12 11 -11 16 3 32 9 10 14 25 11 33 -4 9 -2 18
3 21 16 10 11 25 -5 19 -11 -5 -15 1 -15 19 0 40 18 79 32 71 7 -4 -2 6 -19
23 -18 17 -33 37 -33 45 1 9 5 8 14 -4 16 -22 26 -23 26 -3 0 8 5 15 11 15 5
0 7 5 4 10 -4 6 -11 8 -16 5 -5 -4 -9 1 -9 10 0 9 4 13 10 10 9 -6 4 17 -9 40
-3 6 -7 21 -8 35 -2 14 -5 38 -8 53 -3 17 -1 26 5 22 6 -3 7 1 4 9 -5 14 4 20
27 18 3 -1 6 4 6 11 0 7 2 18 4 26 2 7 -2 16 -10 18 -9 4 -11 0 -6 -16 3 -11
2 -21 -3 -21 -11 0 -22 34 -22 65 0 17 2 17 10 5 8 -12 10 -11 10 8 0 13 -6
22 -15 22 -20 0 -21 68 -1 76 8 3 13 19 13 42 -1 42 13 49 100 51 73 1 180 28
214 53 16 12 41 21 57 21 29 0 284 -110 290 -125 2 -4 10 -8 18 -8 8 0 56 -20
107 -44 50 -23 139 -65 197 -91 58 -26 110 -53 115 -60 10 -12 17 -15 33 -15
4 0 1 -4 -7 -9 -11 -7 -9 -11 10 -21 17 -10 24 -10 27 -1 2 6 8 9 13 5 5 -3 9
-1 9 5 0 12 36 19 135 26 296 22 362 28 375 36 10 6 -4 8 -40 4 -30 -3 -110
-7 -178 -10 -67 -2 -126 -6 -131 -9 -4 -3 -51 -6 -103 -7 -121 -2 -178 18
-178 63 0 20 -5 28 -17 27 -11 0 -13 -3 -5 -6 14 -6 16 -33 2 -33 -5 0 -10 4
-10 10 0 5 -3 9 -7 9 -20 -3 -34 3 -53 23 -14 15 -20 18 -20 7 -1 -12 -2 -12
-13 1 -7 8 -19 16 -27 18 -15 3 -163 71 -210 97 -14 8 -77 35 -140 60 -63 26
-137 59 -163 73 -43 23 -47 29 -41 51 7 30 7 30 -4 93 -5 27 -7 50 -5 52 2 2
6 294 7 647 2 354 6 665 8 691 3 26 2 46 -1 43 -5 -3 -6 1150 -2 1230 3 45
-19 165 -30 165 -5 0 -9 -30 -10 -67 -1 -38 -5 -95 -9 -128 l-7 -60 -3 45 c-2
25 -4 52 -5 60 -1 8 -3 26 -4 40 -1 21 -3 22 -11 9 -18 -30 -28 -219 -29 -538
-1 -173 -4 -318 -7 -323 -3 -5 -8 -20 -10 -35 -5 -25 -4 -26 41 -20 l45 7 0
-148 c0 -107 -4 -153 -13 -166 -7 -10 -36 -24 -63 -32 -49 -14 -49 -14 -7 -9
23 3 49 8 59 12 16 6 16 -39 9 -793 -4 -439 -11 -807 -16 -816 -6 -11 -5 -19
1 -23 19 -12 -10 -34 -64 -50 -58 -18 -259 -32 -301 -21 l-27 7 6 112 c3 62 6
328 6 592 0 264 3 587 7 718 l6 237 34 0 c20 0 32 4 28 10 -3 6 -19 10 -36 10
-25 0 -29 4 -30 28 0 15 -1 86 -2 159 l-2 131 49 7 c62 8 70 13 54 32 -9 12
-13 58 -13 167 -1 226 -15 960 -20 1046 -9 135 -16 160 -60 224 -36 54 -97
109 -114 105 -3 -1 -18 -4 -32 -6z m-299 -3333 c0 -12 -12 -26 -30 -35 -29
-15 -30 -17 -30 -94 0 -78 0 -79 30 -91 28 -12 44 -50 20 -50 -14 0 -104 36
-202 82 -104 48 -114 69 -46 96 24 9 88 38 143 64 55 25 103 47 108 47 4 1 7
-8 7 -19z m-10 -590 l0 -110 -145 0 c-144 0 -145 0 -145 23 0 22 2 22 127 22
l128 0 3 88 c2 68 6 87 17 87 12 0 15 -20 15 -110z"/>
<path d="M3478 6313 c26 -11 11 -25 -20 -19 -31 5 -32 5 -14 -9 25 -19 30 -19
46 0 16 20 28 19 26 -1 0 -9 5 -19 13 -22 8 -3 11 0 7 7 -5 7 1 11 13 11 12 0
21 -3 21 -7 1 -37 81 -54 415 -87 400 -40 638 -66 663 -71 18 -4 22 -1 22 18
0 22 -4 23 -292 56 -160 18 -299 37 -307 42 -13 7 -370 49 -461 54 -14 1 -36
6 -50 12 -14 5 -41 13 -60 16 -19 3 -29 3 -22 0z"/>
<path d="M970 6051 c-46 -25 -62 -43 -101 -120 -32 -65 -32 -66 -40 -265 -9
-224 -16 -327 -25 -350 -7 -19 -88 -58 -166 -80 -56 -16 -85 -36 -52 -36 15 0
16 -2 2 -17 -19 -22 -17 19 -23 -420 -2 -204 -9 -382 -14 -395 -5 -13 -23 -46
-40 -73 -17 -27 -31 -57 -31 -68 0 -10 -30 -50 -67 -88 -38 -38 -74 -87 -81
-107 -10 -28 -15 -167 -19 -584 l-6 -548 27 0 26 0 0 188 c1 399 18 858 33
893 19 45 64 85 112 102 52 18 63 37 46 83 -11 32 -11 38 3 53 21 20 58 20
316 3 288 -20 597 6 685 57 30 17 30 18 30 99 0 45 -2 242 -3 437 l-2 356 -23
23 c-15 15 -49 29 -96 39 -97 22 -121 22 -121 -1 0 -30 -35 -54 -87 -59 -26
-3 -52 -9 -58 -12 -5 -4 -37 -8 -71 -10 -57 -2 -63 -1 -112 38 -29 23 -52 48
-52 56 0 8 -7 15 -16 15 -14 0 -14 2 0 22 9 12 16 32 16 44 0 31 56 244 84
324 14 37 43 106 65 151 42 89 67 186 56 219 -15 48 -128 66 -195 31z"/>
<path d="M7857 5874 c-3 -3 -3 -13 0 -22 4 -10 2 -13 -2 -9 -19 17 -35 -87
-28 -188 3 -55 5 -155 5 -223 -1 -68 3 -133 8 -145 5 -12 9 -16 9 -9 1 7 5 11
10 8 16 -11 21 58 21 320 0 236 -4 286 -23 268z"/>
<path d="M5420 4720 c-8 -5 -95 -44 -192 -87 -242 -105 -243 -93 32 -215 194
-87 180 -83 180 -48 0 26 -6 33 -40 46 l-40 16 0 103 0 102 40 18 c33 15 40
23 40 47 0 32 0 31 -20 18z"/>
<path d="M5040 4216 c0 -22 4 -23 83 -29 104 -9 231 -9 280 -1 31 6 37 11 37
30 l0 24 -200 0 -200 0 0 -24z"/>
<path d="M5386 4064 c-3 -9 -6 -60 -6 -115 l0 -99 -170 0 -170 0 0 -23 c0 -23
2 -24 124 -31 69 -3 157 -3 195 0 l71 7 0 138 c0 130 -1 139 -19 139 -10 0
-22 -7 -25 -16z"/>
<path d="M1045 3649 c-218 -95 -222 -100 -108 -154 96 -46 282 -125 294 -125
5 0 9 11 9 25 0 20 -8 28 -40 41 -40 16 -43 22 -42 79 2 140 -1 128 42 147 32
13 40 22 40 42 0 14 -3 25 -7 25 -5 -1 -89 -37 -188 -80z"/>
<path d="M5040 3668 l0 -28 195 0 195 0 0 28 0 27 -195 0 -195 0 0 -27z"/>
<path d="M860 3245 l0 -25 190 0 190 0 0 25 0 25 -190 0 -190 0 0 -25z"/>
<path d="M1189 3048 c-1 -77 -7 -129 -16 -138 -2 -3 -74 -4 -159 -3 l-154 2 0
-23 c0 -19 7 -24 38 -30 69 -11 317 -7 330 6 8 8 12 53 12 135 l0 123 -25 0
c-24 0 -25 -2 -26 -72z"/>
<path d="M5869 2791 c-16 -16 -30 -45 -34 -69 -4 -23 -13 -49 -22 -57 -8 -8
-11 -15 -7 -15 30 0 -84 -42 -136 -51 -241 -39 -477 -48 -695 -27 -172 16
-169 16 -173 -7 -2 -11 -10 -27 -18 -36 -8 -9 -11 -18 -8 -22 4 -3 -6 -9 -21
-13 -37 -9 -74 20 -105 83 -17 36 -34 55 -55 64 -16 7 -51 27 -77 46 -27 18
-48 29 -48 24 0 -6 5 -13 10 -16 6 -3 10 -19 10 -35 0 -16 5 -32 10 -35 6 -4
8 -11 4 -16 -3 -5 0 -8 6 -7 7 2 13 -11 15 -30 3 -40 11 -50 27 -34 9 9 18 2
39 -30 15 -22 25 -48 21 -56 -3 -10 -1 -13 7 -8 6 4 9 16 6 27 -5 14 -3 17 10
13 9 -4 14 -13 10 -21 -4 -12 0 -14 19 -9 15 4 28 1 32 -6 5 -8 2 -9 -9 -5
-21 8 -22 -6 -2 -23 8 -7 24 -31 34 -54 25 -53 60 -90 90 -94 20 -2 23 1 18
23 -3 19 -1 25 8 21 8 -3 16 2 19 11 5 11 10 13 20 4 18 -15 26 -3 16 24 -9
23 5 41 49 65 17 9 21 8 21 -6 0 -14 3 -14 19 5 20 23 57 24 72 0 7 -11 9 -9
9 9 0 27 24 39 45 22 10 -9 15 -9 15 -1 0 6 5 10 12 9 7 -2 12 4 13 12 1 8 6
14 12 13 7 -2 21 8 31 22 11 13 23 21 26 17 4 -4 12 1 17 11 9 15 27 17 143
17 159 0 441 37 519 68 28 12 34 37 17 77 -7 17 -9 17 -9 3 -1 -25 -16 -22
-35 7 -20 31 -21 41 0 21 13 -14 17 -14 30 -2 14 15 20 96 7 96 -5 -1 -20 -13
-34 -29z"/>
<path d="M6855 2740 c-11 -5 -96 -40 -190 -79 -148 -61 -170 -73 -173 -93 -3
-22 10 -30 125 -86 70 -34 161 -75 201 -91 l72 -30 0 30 c0 26 -6 32 -46 50
-44 18 -46 21 -40 50 3 18 6 63 6 101 l0 69 45 19 c36 16 45 24 45 45 0 26
-11 30 -45 15z"/>
<path d="M5867 2394 c-11 -11 -8 -56 3 -49 6 3 10 -1 10 -10 0 -9 -4 -14 -9
-11 -5 4 -11 0 -14 -6 -3 -10 -7 -10 -20 1 -14 11 -17 11 -17 0 -1 -10 -4 -8
-11 4 -5 9 -8 21 -5 26 10 15 -18 19 -32 5 -10 -12 -10 -14 3 -14 17 0 19 -9
6 -28 -7 -11 -9 -11 -14 2 -4 9 -12 16 -19 15 -10 0 -10 -2 0 -6 6 -2 12 -14
12 -24 0 -11 -4 -18 -9 -15 -16 10 -18 -18 -3 -41 13 -21 13 -23 -4 -23 -14 0
-15 -3 -6 -12 10 -10 15 -10 22 1 12 21 54 26 46 6 -3 -8 0 -15 7 -15 8 0 7
-4 -3 -9 -8 -6 -17 -8 -21 -5 -14 8 -21 -17 -9 -31 15 -18 -1 -20 -18 -3 -15
15 -16 0 -2 -38 11 -28 -3 -59 -21 -48 -5 3 -9 -5 -9 -17 0 -12 -7 -27 -17
-34 -11 -9 -14 -18 -8 -31 8 -18 9 -17 13 4 4 25 32 27 40 3 3 -10 0 -12 -12
-8 -12 5 -16 1 -16 -16 0 -12 -6 -31 -13 -42 -7 -11 -12 -30 -11 -42 1 -13 -1
-23 -5 -23 -3 0 -7 -17 -7 -38 -1 -20 0 -31 3 -24 3 6 9 12 15 12 6 0 8 -6 5
-14 -3 -7 3 -20 14 -29 22 -19 25 -37 6 -37 -7 0 -18 -9 -24 -19 -10 -15 -9
-20 2 -25 8 -3 19 3 24 12 9 14 11 14 12 2 3 -28 -3 -44 -18 -56 -10 -7 -14
-20 -11 -37 4 -19 1 -27 -8 -27 -8 0 -14 -6 -13 -12 2 -21 17 -64 18 -50 1 6
8 12 16 12 21 0 19 -9 -7 -31 -13 -10 -17 -18 -10 -19 6 0 12 -9 12 -21 0 -13
-4 -18 -12 -14 -7 4 -5 0 6 -9 10 -8 15 -20 11 -26 -4 -7 2 -9 19 -6 32 6 40
-5 22 -30 -10 -13 -11 -24 -4 -37 5 -10 7 -21 4 -25 -3 -3 -6 0 -6 6 0 20 -17
13 -23 -8 -3 -11 -1 -18 4 -14 5 3 15 2 21 -2 27 -17 48 -11 48 13 0 13 5 22
13 20 7 -1 13 11 15 31 4 38 22 44 22 6 0 -39 24 -24 28 17 2 26 0 30 -8 19
-8 -13 -10 -12 -10 3 0 10 -4 15 -10 12 -5 -3 -10 1 -10 9 0 8 -5 18 -12 22
-8 5 -9 2 -5 -10 4 -10 3 -15 -3 -11 -5 3 -12 -6 -16 -20 -10 -39 -20 -30 -21
20 -1 43 12 63 19 30 5 -25 58 31 58 61 0 14 4 22 10 19 6 -4 10 24 11 77 0
46 2 104 5 131 5 53 -8 87 -34 87 -14 0 -14 2 -3 9 8 5 11 16 8 26 -4 10 -3
14 4 9 7 -4 9 0 5 14 -4 11 -2 23 4 27 5 3 10 22 10 41 0 19 -4 33 -8 30 -4
-2 -8 7 -9 22 -1 22 0 24 6 7 6 -14 9 -7 13 30 10 83 8 246 -3 240 -5 -4 -9 9
-9 27 0 25 3 29 10 18 8 -12 10 -11 10 8 0 16 -5 22 -16 20 -10 -2 -19 3 -21
10 -3 7 1 10 10 6 8 -3 18 0 23 7 5 9 2 10 -9 6 -9 -3 -17 -1 -19 4 -2 6 -7 7
-11 3z"/>
<path d="M6482 2244 l3 -29 110 -8 c61 -4 151 -6 200 -5 l90 3 3 28 3 27 -153
0 c-84 0 -177 3 -206 7 l-54 6 4 -29z"/>
<path d="M356 2212 c-14 -22 -45 -218 -48 -297 -3 -85 -2 -90 18 -93 20 -3 21
3 27 105 4 59 15 146 26 193 14 62 16 87 7 92 -15 10 -24 10 -30 0z"/>
<path d="M471 2153 c-37 -138 -54 -353 -28 -353 6 -1 56 -9 110 -19 l98 -18
-3 25 c-3 24 -9 27 -88 42 l-85 15 3 70 c2 39 12 113 23 167 23 117 23 108 -1
108 -14 0 -22 -10 -29 -37z"/>
<path d="M781 2098 c-19 -61 -41 -210 -41 -284 0 -65 2 -74 19 -74 16 0 19 12
25 97 4 53 16 137 26 187 24 110 24 106 1 106 -13 0 -23 -11 -30 -32z"/>
<path d="M6853 2089 c-22 -8 -23 -13 -23 -120 l0 -111 -175 7 -175 7 0 -25 c0
-21 5 -25 46 -31 26 -3 115 -6 199 -6 l153 0 7 136 c4 75 4 139 -1 144 -5 4
-19 4 -31 -1z"/>
<path d="M1010 2028 c-41 -64 -132 -244 -144 -285 -6 -20 -4 -23 18 -23 19 0
27 7 36 35 14 43 12 42 156 10 15 -3 25 -18 34 -50 9 -33 18 -45 31 -45 11 0
19 2 19 4 0 3 -13 59 -29 125 -17 66 -33 153 -37 193 -11 118 -27 125 -84 36z"/>
<path d="M6480 1688 c0 -22 5 -26 46 -32 26 -3 116 -6 200 -6 l154 0 0 25 c0
24 -3 25 -57 25 -32 0 -122 3 -200 7 l-143 6 0 -25z"/>
<path d="M4758 1305 c-3 -3 -3 -19 2 -35 14 -48 13 -544 -1 -590 -8 -28 -15
-37 -21 -28 -6 11 -8 11 -8 0 0 -7 -4 -11 -9 -7 -5 3 -13 0 -16 -6 -5 -7 -43
-10 -109 -8 -55 1 -148 -1 -206 -4 -58 -4 -175 -9 -260 -12 -85 -2 -171 -9
-190 -15 -19 -5 -52 -10 -73 -10 -45 0 -50 -10 -67 -125 -7 -44 -16 -85 -21
-91 -15 -18 22 -54 66 -64 39 -9 716 4 834 16 53 6 53 6 47 36 -4 22 0 38 18
61 23 31 31 69 42 197 8 103 15 138 28 149 33 28 39 93 22 257 -23 224 -25
234 -47 234 -12 0 -19 9 -21 26 -2 14 -6 23 -10 19z"/>
<path d="M3754 856 c-40 -18 -187 -38 -288 -40 -44 0 -84 -5 -87 -9 -11 -15
-122 -38 -168 -35 -37 2 -46 0 -49 -14 -3 -15 0 -16 28 -7 35 13 100 6 110
-11 7 -11 282 -19 355 -10 39 5 40 4 43 -27 2 -18 6 -33 10 -33 4 0 6 -18 4
-40 -5 -49 3 -74 20 -63 7 4 23 6 35 5 28 -4 32 10 34 143 3 174 6 164 -47
141z"/>
<path d="M1571 725 c-9 -31 -16 -42 -22 -34 -6 10 -11 10 -22 1 -7 -7 -17 -9
-21 -5 -4 4 -4 -1 0 -11 6 -15 13 -17 43 -10 65 13 135 12 165 -3 18 -9 61
-16 113 -17 45 0 83 -4 83 -8 0 -4 11 -3 25 2 14 5 42 10 63 10 42 0 74 2 284
20 81 7 145 17 142 22 -3 4 4 8 16 8 12 0 18 4 15 10 -4 7 13 8 49 4 39 -5 56
-3 56 5 0 14 -94 15 -121 0 -12 -6 -131 -12 -302 -14 -300 -5 -332 -7 -343
-18 -12 -12 -20 -8 -48 19 -19 19 -26 22 -26 11 0 -10 -6 -13 -20 -10 -18 5
-24 15 -21 36 3 17 -55 -5 -71 -27 -3 -5 -10 5 -15 23 l-8 32 -14 -46z"/>
<path d="M2805 514 c-11 -2 -164 -8 -340 -14 -420 -14 -517 -19 -595 -31 -79
-12 -112 -32 -108 -62 4 -31 68 -39 273 -33 931 30 1001 33 1024 45 9 5 39 12
66 14 28 3 52 6 54 6 2 1 -2 8 -9 16 -10 12 -16 13 -26 4 -11 -9 -14 -8 -14 4
0 17 -70 42 -93 34 -7 -2 -26 2 -44 10 -29 12 -134 16 -188 7z"/>
</g>
</svg>
